<?xml version="1.0" encoding="utf-8"?>
<!-- Generator: Adobe Illustrator 25.2.1, SVG Export Plug-In . SVG Version: 6.00 Build 0)  -->
<svg version="1.1" id="Layer_1" xmlns="http://www.w3.org/2000/svg" xmlns:xlink="http://www.w3.org/1999/xlink" x="0px" y="0px"
	 viewBox="0 0 421 163" style="enable-background:new 0 0 421 163;" xml:space="preserve">
<style type="text/css">
	.st0{fill-rule:evenodd;clip-rule:evenodd;fill:#4A90E2;}
	.st1{fill-rule:evenodd;clip-rule:evenodd;fill:#EF95EF;}
	.st2{fill:none;stroke:#4A4A4A;stroke-linecap:square;}
	.st3{fill-rule:evenodd;clip-rule:evenodd;fill:#4A4A4A;}
	.st4{fill:#F5A623;}
	.st5{fill:#9B9B9B;}
	.st6{fill:#8BE392;}
	.st7{fill-rule:evenodd;clip-rule:evenodd;fill:#FFFFFF;}
</style>
<desc>Created with Sketch.</desc>
<g id="by-variable">
	<path id="const-rectWidth-_x3D_-10" class="st0" d="M71.8,23.5L71.8,23.5c0-0.2,0-0.3,0.1-0.3s0.2-0.1,0.4-0.1
		c0.2,0,0.3,0.1,0.4,0.2s0.1,0.3,0.1,0.6V25c0,0.2,0,0.3-0.1,0.4s-0.2,0.1-0.4,0.1c-0.1,0-0.2,0-0.3-0.1s-0.2-0.2-0.3-0.4
		c-0.2-0.3-0.4-0.6-0.7-0.8s-0.6-0.3-1-0.3c-0.7,0-1.2,0.2-1.6,0.6s-0.6,0.9-0.6,1.5c0,0.6,0.2,1.1,0.6,1.5s0.9,0.6,1.5,0.6
		c0.3,0,0.6,0,0.8-0.1s0.5-0.2,0.7-0.4c0.1-0.1,0.2-0.1,0.3-0.2c0.3-0.2,0.5-0.3,0.6-0.3c0.1,0,0.2,0,0.3,0.1s0.1,0.2,0.1,0.3
		c0,0.3-0.3,0.7-0.9,1s-1.3,0.5-2,0.5c-0.9,0-1.7-0.3-2.3-0.9s-0.9-1.3-0.9-2.2s0.3-1.6,0.9-2.2s1.4-0.9,2.3-0.9c0.3,0,0.6,0,1,0.1
		S71.4,23.3,71.8,23.5z M77.7,28.3c0.7,0,1.2-0.2,1.6-0.6s0.6-0.9,0.6-1.6s-0.2-1.2-0.6-1.6s-1-0.6-1.6-0.6s-1.2,0.2-1.6,0.6
		s-0.6,0.9-0.6,1.6c0,0.6,0.2,1.2,0.6,1.6S77,28.3,77.7,28.3z M81,26.1c0,0.9-0.3,1.6-0.9,2.2s-1.4,0.9-2.4,0.9
		c-1,0-1.8-0.3-2.4-0.9s-0.9-1.3-0.9-2.2s0.3-1.6,0.9-2.2s1.4-0.9,2.4-0.9s1.8,0.3,2.4,0.9S81,25.2,81,26.1z M83.1,28.1V24H83
		c-0.3,0-0.5,0-0.6-0.1s-0.2-0.2-0.2-0.4c0-0.2,0-0.3,0.1-0.3s0.2-0.1,0.4-0.1h0.9c0.1,0,0.2,0,0.3,0.1s0.1,0.1,0.1,0.2v0.4
		c0.3-0.3,0.6-0.5,0.9-0.6S85.6,23,86,23c0.6,0,1.1,0.2,1.5,0.6s0.5,0.9,0.5,1.7v2.9h0.3c0.2,0,0.4,0,0.5,0.1s0.1,0.2,0.1,0.3
		c0,0.2,0,0.3-0.1,0.4S88.5,29,88.2,29h-1.4c-0.3,0-0.4,0-0.5-0.1s-0.1-0.2-0.1-0.4c0-0.2,0-0.3,0.1-0.3s0.3-0.1,0.5-0.1H87v-2.6
		c0-0.5-0.1-0.9-0.3-1.1s-0.6-0.4-1-0.4c-0.4,0-0.8,0.1-1.1,0.4s-0.5,0.7-0.5,1.1v2.6h0.2c0.3,0,0.4,0,0.5,0.1s0.1,0.2,0.1,0.3
		c0,0.2,0,0.3-0.1,0.4S84.6,29,84.3,29h-1.5c-0.2,0-0.3,0-0.4-0.1s-0.1-0.2-0.1-0.3c0-0.2,0-0.3,0.1-0.3s0.3-0.1,0.6-0.1H83.1z
		 M90.5,28.5v-1.1c0-0.2,0-0.3,0.1-0.4s0.2-0.1,0.3-0.1c0.2,0,0.3,0.1,0.4,0.4c0.1,0.1,0.1,0.3,0.2,0.3c0.2,0.2,0.4,0.4,0.8,0.5
		s0.7,0.2,1.1,0.2c0.4,0,0.8-0.1,1.1-0.3s0.4-0.4,0.4-0.7c0-0.3-0.1-0.5-0.3-0.6s-0.6-0.2-1.1-0.2h-0.3c-0.9,0-1.5-0.2-2-0.5
		s-0.7-0.7-0.7-1.3c0-0.6,0.2-1,0.7-1.3s1.1-0.5,1.9-0.5c0.3,0,0.7,0,1,0.1s0.5,0.1,0.5,0.1c0,0,0.1,0,0.3-0.1s0.3-0.1,0.4-0.1
		c0.1,0,0.3,0.1,0.3,0.2s0.1,0.3,0.1,0.5v0.7c0,0.2,0,0.4-0.1,0.5S95.4,25,95.3,25c-0.1,0-0.3-0.1-0.5-0.3c-0.1-0.1-0.2-0.3-0.3-0.3
		c-0.2-0.2-0.5-0.4-0.7-0.4s-0.6-0.1-0.9-0.1c-0.4,0-0.7,0.1-1,0.3s-0.4,0.4-0.4,0.7c0,0.3,0.1,0.5,0.4,0.6s0.8,0.2,1.6,0.2
		c0.9,0,1.5,0.2,1.9,0.5s0.6,0.7,0.6,1.3c0,0.6-0.2,1-0.7,1.4s-1.1,0.5-1.8,0.5c-0.2,0-0.5,0-0.8-0.1s-0.7-0.1-1.1-0.2
		c-0.1,0.1-0.3,0.2-0.4,0.2s-0.2,0.1-0.3,0.1c-0.1,0-0.3-0.1-0.3-0.2S90.5,28.7,90.5,28.5z M102.8,23.5c0.2,0,0.4,0,0.5,0.1
		s0.1,0.2,0.1,0.3c0,0.1,0,0.3-0.1,0.3s-0.2,0.1-0.4,0.1h-2.6v2.1c0,0.7,0.1,1.2,0.3,1.4c0.2,0.2,0.5,0.3,0.9,0.3
		c0.4,0,0.8-0.1,1.4-0.3s0.9-0.3,1-0.3c0.1,0,0.2,0,0.3,0.1s0.1,0.2,0.1,0.3c0,0.1-0.1,0.3-0.2,0.4s-0.3,0.2-0.5,0.3
		c-0.4,0.2-0.8,0.3-1.1,0.4c-0.3,0.1-0.6,0.1-0.9,0.1c-0.5,0-0.9-0.1-1.2-0.2s-0.6-0.4-0.8-0.7c-0.1-0.1-0.1-0.3-0.2-0.5
		s-0.1-0.5-0.1-0.9v-2.3h-1.1c-0.2,0-0.3,0-0.4-0.1s-0.1-0.2-0.1-0.3c0-0.2,0.1-0.3,0.2-0.4s0.3-0.1,0.7-0.1h0.7v-1.6
		c0-0.2,0-0.3,0.1-0.4s0.2-0.1,0.4-0.1c0.2,0,0.3,0.1,0.4,0.2s0.1,0.3,0.1,0.7v1.3H102.8z M71.8,40.5L71.8,40.5c0-0.2,0-0.3,0.1-0.3
		s0.2-0.1,0.4-0.1c0.2,0,0.3,0.1,0.4,0.2s0.1,0.3,0.1,0.6V42c0,0.2,0,0.3-0.1,0.4s-0.2,0.1-0.4,0.1c-0.1,0-0.2,0-0.3-0.1
		s-0.2-0.2-0.3-0.4c-0.2-0.3-0.4-0.6-0.7-0.8s-0.6-0.3-1-0.3c-0.7,0-1.2,0.2-1.6,0.6s-0.6,0.9-0.6,1.5c0,0.6,0.2,1.1,0.6,1.5
		s0.9,0.6,1.5,0.6c0.3,0,0.6,0,0.8-0.1s0.5-0.2,0.7-0.4c0.1-0.1,0.2-0.1,0.3-0.2c0.3-0.2,0.5-0.3,0.6-0.3c0.1,0,0.2,0,0.3,0.1
		s0.1,0.2,0.1,0.3c0,0.3-0.3,0.7-0.9,1s-1.3,0.5-2,0.5c-0.9,0-1.7-0.3-2.3-0.9s-0.9-1.3-0.9-2.2s0.3-1.6,0.9-2.2s1.4-0.9,2.3-0.9
		c0.3,0,0.6,0,1,0.1S71.4,40.3,71.8,40.5z M77.7,45.3c0.7,0,1.2-0.2,1.6-0.6s0.6-0.9,0.6-1.6s-0.2-1.2-0.6-1.6s-1-0.6-1.6-0.6
		s-1.2,0.2-1.6,0.6s-0.6,0.9-0.6,1.6c0,0.6,0.2,1.2,0.6,1.6S77,45.3,77.7,45.3z M81,43.1c0,0.9-0.3,1.6-0.9,2.2s-1.4,0.9-2.4,0.9
		c-1,0-1.8-0.3-2.4-0.9s-0.9-1.3-0.9-2.2s0.3-1.6,0.9-2.2s1.4-0.9,2.4-0.9s1.8,0.3,2.4,0.9S81,42.2,81,43.1z M83.1,45.1V41H83
		c-0.3,0-0.5,0-0.6-0.1s-0.2-0.2-0.2-0.4c0-0.2,0-0.3,0.1-0.3s0.2-0.1,0.4-0.1h0.9c0.1,0,0.2,0,0.3,0.1s0.1,0.1,0.1,0.2v0.4
		c0.3-0.3,0.6-0.5,0.9-0.6S85.6,40,86,40c0.6,0,1.1,0.2,1.5,0.6s0.5,0.9,0.5,1.7v2.9h0.3c0.2,0,0.4,0,0.5,0.1s0.1,0.2,0.1,0.3
		c0,0.2,0,0.3-0.1,0.4S88.5,46,88.2,46h-1.4c-0.3,0-0.4,0-0.5-0.1s-0.1-0.2-0.1-0.4c0-0.2,0-0.3,0.1-0.3s0.3-0.1,0.5-0.1H87v-2.6
		c0-0.5-0.1-0.9-0.3-1.1s-0.6-0.4-1-0.4c-0.4,0-0.8,0.1-1.1,0.4s-0.5,0.7-0.5,1.1v2.6h0.2c0.3,0,0.4,0,0.5,0.1s0.1,0.2,0.1,0.3
		c0,0.2,0,0.3-0.1,0.4S84.6,46,84.3,46h-1.5c-0.2,0-0.3,0-0.4-0.1s-0.1-0.2-0.1-0.3c0-0.2,0-0.3,0.1-0.3s0.3-0.1,0.6-0.1H83.1z
		 M90.5,45.5v-1.1c0-0.2,0-0.3,0.1-0.4s0.2-0.1,0.3-0.1c0.2,0,0.3,0.1,0.4,0.4c0.1,0.1,0.1,0.3,0.2,0.3c0.2,0.2,0.4,0.4,0.8,0.5
		s0.7,0.2,1.1,0.2c0.4,0,0.8-0.1,1.1-0.3s0.4-0.4,0.4-0.7c0-0.3-0.1-0.5-0.3-0.6s-0.6-0.2-1.1-0.2h-0.3c-0.9,0-1.5-0.2-2-0.5
		s-0.7-0.7-0.7-1.3c0-0.6,0.2-1,0.7-1.3s1.1-0.5,1.9-0.5c0.3,0,0.7,0,1,0.1s0.5,0.1,0.5,0.1c0,0,0.1,0,0.3-0.1s0.3-0.1,0.4-0.1
		c0.1,0,0.3,0.1,0.3,0.2s0.1,0.3,0.1,0.5v0.7c0,0.2,0,0.4-0.1,0.5S95.4,42,95.3,42c-0.1,0-0.3-0.1-0.5-0.3c-0.1-0.1-0.2-0.3-0.3-0.3
		c-0.2-0.2-0.5-0.4-0.7-0.4s-0.6-0.1-0.9-0.1c-0.4,0-0.7,0.1-1,0.3s-0.4,0.4-0.4,0.7c0,0.3,0.1,0.5,0.4,0.6s0.8,0.2,1.6,0.2
		c0.9,0,1.5,0.2,1.9,0.5s0.6,0.7,0.6,1.3c0,0.6-0.2,1-0.7,1.4s-1.1,0.5-1.8,0.5c-0.2,0-0.5,0-0.8-0.1s-0.7-0.1-1.1-0.2
		c-0.1,0.1-0.3,0.2-0.4,0.2s-0.2,0.1-0.3,0.1c-0.1,0-0.3-0.1-0.3-0.2S90.5,45.7,90.5,45.5z M102.8,40.5c0.2,0,0.4,0,0.5,0.1
		s0.1,0.2,0.1,0.3c0,0.1,0,0.3-0.1,0.3s-0.2,0.1-0.4,0.1h-2.6v2.1c0,0.7,0.1,1.2,0.3,1.4c0.2,0.2,0.5,0.3,0.9,0.3
		c0.4,0,0.8-0.1,1.4-0.3s0.9-0.3,1-0.3c0.1,0,0.2,0,0.3,0.1s0.1,0.2,0.1,0.3c0,0.1-0.1,0.3-0.2,0.4s-0.3,0.2-0.5,0.3
		c-0.4,0.2-0.8,0.3-1.1,0.4c-0.3,0.1-0.6,0.1-0.9,0.1c-0.5,0-0.9-0.1-1.2-0.2s-0.6-0.4-0.8-0.7c-0.1-0.1-0.1-0.3-0.2-0.5
		s-0.1-0.5-0.1-0.9v-2.3h-1.1c-0.2,0-0.3,0-0.4-0.1s-0.1-0.2-0.1-0.3c0-0.2,0.1-0.3,0.2-0.4s0.3-0.1,0.7-0.1h0.7v-1.6
		c0-0.2,0-0.3,0.1-0.4s0.2-0.1,0.4-0.1c0.2,0,0.3,0.1,0.4,0.2s0.1,0.3,0.1,0.7v1.3H102.8z"/>
	<path id="calculateArea_x28_rectWi" class="st1" d="M71.8,78.5L71.8,78.5c0-0.2,0-0.3,0.1-0.3s0.2-0.1,0.4-0.1
		c0.2,0,0.3,0.1,0.4,0.2s0.1,0.3,0.1,0.6V80c0,0.2,0,0.3-0.1,0.4s-0.2,0.1-0.4,0.1c-0.1,0-0.2,0-0.3-0.1s-0.2-0.2-0.3-0.4
		c-0.2-0.3-0.4-0.6-0.7-0.8s-0.6-0.3-1-0.3c-0.7,0-1.2,0.2-1.6,0.6s-0.6,0.9-0.6,1.5c0,0.6,0.2,1.1,0.6,1.5s0.9,0.6,1.5,0.6
		c0.3,0,0.6,0,0.8-0.1s0.5-0.2,0.7-0.4c0.1-0.1,0.2-0.1,0.3-0.2c0.3-0.2,0.5-0.3,0.6-0.3c0.1,0,0.2,0,0.3,0.1s0.1,0.2,0.1,0.3
		c0,0.3-0.3,0.7-0.9,1s-1.3,0.5-2,0.5c-0.9,0-1.7-0.3-2.3-0.9s-0.9-1.3-0.9-2.2s0.3-1.6,0.9-2.2s1.4-0.9,2.3-0.9c0.3,0,0.6,0,1,0.1
		S71.4,78.3,71.8,78.5z M79.1,81.2c-0.2-0.1-0.5-0.1-0.7-0.2S78,81,77.8,81c-0.7,0-1.2,0.1-1.5,0.3s-0.6,0.5-0.6,0.9
		c0,0.3,0.1,0.5,0.4,0.7s0.5,0.3,0.9,0.3c0.5,0,1-0.1,1.5-0.4s0.7-0.6,0.7-0.9V81.2z M79.2,83.2c-0.3,0.3-0.7,0.6-1.1,0.7
		s-0.8,0.2-1.3,0.2c-0.6,0-1.1-0.2-1.5-0.5s-0.6-0.8-0.6-1.4c0-0.7,0.3-1.2,0.8-1.6s1.2-0.6,2.2-0.6c0.2,0,0.5,0,0.7,0
		s0.5,0.1,0.8,0.1v0c0-0.5-0.1-0.8-0.3-1.1s-0.6-0.3-1.1-0.3c-0.3,0-0.7,0.1-1.1,0.3s-0.7,0.3-0.8,0.3c-0.1,0-0.2,0-0.3-0.1
		s-0.1-0.2-0.1-0.4c0-0.2,0.2-0.5,0.7-0.6s1.1-0.3,1.8-0.3c0.7,0,1.3,0.2,1.7,0.6s0.6,0.9,0.6,1.7v2.9h0.3c0.3,0,0.5,0,0.6,0.1
		s0.2,0.2,0.2,0.3c0,0.2,0,0.3-0.1,0.3S80.8,84,80.7,84h-1c-0.1,0-0.2,0-0.3-0.1s-0.1-0.2-0.2-0.3L79.2,83.2z M85.1,76.6H84
		c-0.4,0-0.7,0-0.8-0.1s-0.2-0.2-0.2-0.4c0-0.2,0-0.3,0.1-0.3s0.2-0.1,0.4-0.1h2.1c0.1,0,0.2,0,0.3,0.1S86,75.9,86,76v7.2h2
		c0.2,0,0.3,0,0.4,0.1s0.1,0.2,0.1,0.3c0,0.2,0,0.3-0.1,0.4S88.2,84,88,84h-4.7c-0.2,0-0.3,0-0.4-0.1s-0.1-0.2-0.1-0.3
		c0-0.1,0-0.3,0.1-0.3s0.2-0.1,0.4-0.1h1.8V76.6z M95.2,78.5L95.2,78.5c0-0.2,0-0.3,0.1-0.3s0.2-0.1,0.4-0.1c0.2,0,0.3,0.1,0.4,0.2
		s0.1,0.3,0.1,0.6V80c0,0.2,0,0.3-0.1,0.4s-0.2,0.1-0.4,0.1c-0.1,0-0.2,0-0.3-0.1s-0.2-0.2-0.3-0.4c-0.2-0.3-0.4-0.6-0.7-0.8
		s-0.6-0.3-1-0.3c-0.7,0-1.2,0.2-1.6,0.6s-0.6,0.9-0.6,1.5c0,0.6,0.2,1.1,0.6,1.5s0.9,0.6,1.5,0.6c0.3,0,0.6,0,0.8-0.1
		s0.5-0.2,0.7-0.4c0.1-0.1,0.2-0.1,0.3-0.2c0.3-0.2,0.5-0.3,0.6-0.3c0.1,0,0.2,0,0.3,0.1s0.1,0.2,0.1,0.3c0,0.3-0.3,0.7-0.9,1
		s-1.3,0.5-2,0.5c-0.9,0-1.7-0.3-2.3-0.9S90,82,90,81.1s0.3-1.6,0.9-2.2s1.4-0.9,2.3-0.9c0.3,0,0.6,0,1,0.1S94.8,78.3,95.2,78.5z
		 M99.5,81.7c0,0.5,0.1,0.9,0.3,1.2s0.6,0.4,1.1,0.4c0.5,0,0.9-0.1,1.2-0.4s0.5-0.7,0.5-1.1V79h-0.9c-0.2,0-0.3,0-0.4-0.1
		s-0.1-0.2-0.1-0.3c0-0.2,0-0.3,0.1-0.4s0.2-0.1,0.4-0.1h1.4c0.2,0,0.3,0,0.3,0.1s0.1,0.2,0.1,0.5v4.4h0.3c0.2,0,0.4,0,0.4,0.1
		s0.1,0.2,0.1,0.3c0,0.2,0,0.3-0.1,0.3s-0.2,0.1-0.4,0.1h-1c-0.1,0-0.2,0-0.3-0.1s-0.1-0.1-0.1-0.2v-0.4c-0.4,0.3-0.8,0.5-1,0.6
		s-0.6,0.2-0.9,0.2c-0.7,0-1.2-0.2-1.6-0.6s-0.5-0.9-0.5-1.7V79h-0.1c-0.3,0-0.5,0-0.6-0.1s-0.2-0.2-0.2-0.4c0-0.1,0-0.3,0.1-0.3
		s0.2-0.1,0.4-0.1h1c0.1,0,0.3,0,0.3,0.1s0.1,0.2,0.1,0.4V81.7z M108.5,76.6h-1.1c-0.4,0-0.7,0-0.8-0.1s-0.2-0.2-0.2-0.4
		c0-0.2,0-0.3,0.1-0.3s0.2-0.1,0.4-0.1h2.1c0.1,0,0.2,0,0.3,0.1s0.1,0.1,0.1,0.2v7.2h2c0.2,0,0.3,0,0.4,0.1s0.1,0.2,0.1,0.3
		c0,0.2,0,0.3-0.1,0.4s-0.2,0.1-0.4,0.1h-4.7c-0.2,0-0.3,0-0.4-0.1s-0.1-0.2-0.1-0.3c0-0.1,0-0.3,0.1-0.3s0.2-0.1,0.4-0.1h1.8V76.6z
		 M118.1,81.2c-0.2-0.1-0.5-0.1-0.7-0.2c-0.2,0-0.4-0.1-0.7-0.1c-0.7,0-1.2,0.1-1.5,0.3s-0.6,0.5-0.6,0.9c0,0.3,0.1,0.5,0.4,0.7
		s0.5,0.3,0.9,0.3c0.5,0,1-0.1,1.5-0.4s0.7-0.6,0.7-0.9V81.2z M118.2,83.2c-0.3,0.3-0.7,0.6-1.1,0.7s-0.8,0.2-1.3,0.2
		c-0.6,0-1.1-0.2-1.5-0.5s-0.6-0.8-0.6-1.4c0-0.7,0.3-1.2,0.8-1.6s1.2-0.6,2.2-0.6c0.2,0,0.5,0,0.7,0s0.5,0.1,0.8,0.1v0
		c0-0.5-0.1-0.8-0.3-1.1s-0.6-0.3-1.1-0.3c-0.3,0-0.7,0.1-1.1,0.3s-0.7,0.3-0.8,0.3c-0.1,0-0.2,0-0.3-0.1s-0.1-0.2-0.1-0.4
		c0-0.2,0.2-0.5,0.7-0.6s1.1-0.3,1.8-0.3c0.7,0,1.3,0.2,1.7,0.6s0.6,0.9,0.6,1.7v2.9h0.3c0.3,0,0.5,0,0.6,0.1s0.2,0.2,0.2,0.3
		c0,0.2,0,0.3-0.1,0.3s-0.2,0.1-0.4,0.1h-1c-0.1,0-0.2,0-0.3-0.1s-0.1-0.2-0.2-0.3L118.2,83.2z M126.2,78.5c0.2,0,0.4,0,0.5,0.1
		s0.1,0.2,0.1,0.3c0,0.1,0,0.3-0.1,0.3s-0.2,0.1-0.4,0.1h-2.6v2.1c0,0.7,0.1,1.2,0.3,1.4s0.5,0.3,0.9,0.3c0.4,0,0.8-0.1,1.4-0.3
		s0.9-0.3,1-0.3c0.1,0,0.2,0,0.3,0.1s0.1,0.2,0.1,0.3c0,0.1-0.1,0.3-0.2,0.4s-0.3,0.2-0.5,0.3c-0.4,0.2-0.8,0.3-1.1,0.4
		c-0.3,0.1-0.6,0.1-0.9,0.1c-0.5,0-0.9-0.1-1.2-0.2s-0.6-0.4-0.8-0.7c-0.1-0.1-0.1-0.3-0.2-0.5s-0.1-0.5-0.1-0.9v-2.3h-1.1
		c-0.2,0-0.3,0-0.4-0.1s-0.1-0.2-0.1-0.3c0-0.2,0.1-0.3,0.2-0.4s0.3-0.1,0.7-0.1h0.7v-1.6c0-0.2,0-0.3,0.1-0.4s0.2-0.1,0.4-0.1
		c0.2,0,0.3,0.1,0.4,0.2s0.1,0.3,0.1,0.7v1.3H126.2z M130.2,81.3c0,0.6,0.2,1.1,0.6,1.4s0.9,0.5,1.6,0.5c0.5,0,1-0.1,1.6-0.4
		s0.9-0.4,1.1-0.4c0.1,0,0.2,0,0.3,0.1s0.1,0.2,0.1,0.3c0,0.1,0,0.2-0.1,0.3s-0.2,0.2-0.4,0.3c-0.4,0.2-0.9,0.4-1.3,0.5
		s-0.9,0.2-1.3,0.2c-1,0-1.7-0.3-2.3-0.8s-0.9-1.3-0.9-2.2c0-0.9,0.3-1.7,0.9-2.3s1.4-0.9,2.4-0.9c0.9,0,1.6,0.3,2.2,0.8
		s0.9,1.2,0.9,2c0,0.2,0,0.4-0.1,0.5s-0.4,0.1-0.8,0.1H130.2z M130.2,80.5h4.1c-0.1-0.5-0.3-0.9-0.6-1.2s-0.8-0.5-1.3-0.5
		c-0.6,0-1,0.1-1.4,0.4S130.3,80,130.2,80.5z M138.8,80.8h2.6l-1.4-3.4L138.8,80.8z M139.1,77.4h-0.9c-0.3,0-0.4,0-0.5-0.1
		s-0.2-0.2-0.2-0.4c0-0.2,0-0.3,0.1-0.4s0.3-0.1,0.7-0.1h1.8c0.2,0,0.4,0,0.5,0.1s0.2,0.2,0.2,0.3l2.5,6.2h0.1c0.2,0,0.4,0,0.5,0.1
		s0.1,0.2,0.1,0.3c0,0.2,0,0.3-0.1,0.4s-0.2,0.1-0.5,0.1h-1.7c-0.3,0-0.5,0-0.6-0.1s-0.1-0.2-0.1-0.4c0-0.2,0-0.3,0.1-0.3
		s0.3-0.1,0.6-0.1h0.6l-0.6-1.5h-3.2l-0.5,1.5h0.6c0.3,0,0.5,0,0.6,0.1s0.2,0.2,0.2,0.3c0,0.2,0,0.3-0.1,0.4s-0.3,0.1-0.6,0.1h-1.7
		c-0.3,0-0.5,0-0.5-0.1s-0.1-0.2-0.1-0.4c0-0.2,0-0.3,0.1-0.3s0.3-0.1,0.5-0.1h0.1L139.1,77.4z M147.3,83.1h2.1c0.2,0,0.3,0,0.4,0.1
		s0.1,0.2,0.1,0.3c0,0.2,0,0.3-0.1,0.4s-0.2,0.1-0.4,0.1h-4.2c-0.2,0-0.3,0-0.4-0.1s-0.1-0.2-0.1-0.3c0-0.1,0-0.3,0.1-0.3
		s0.2-0.1,0.4-0.1h1.1V79h-0.4c-0.4,0-0.7,0-0.8-0.1s-0.2-0.2-0.2-0.4c0-0.1,0-0.3,0.1-0.3s0.2-0.1,0.4-0.1h1.4c0.1,0,0.2,0,0.3,0.1
		s0.1,0.1,0.1,0.2v1.1c0.4-0.5,0.8-0.9,1.3-1.1s0.9-0.4,1.4-0.4c0.4,0,0.7,0.1,0.9,0.2s0.3,0.3,0.3,0.6c0,0.2-0.1,0.3-0.2,0.4
		s-0.2,0.2-0.4,0.2c-0.1,0-0.3-0.1-0.5-0.2s-0.4-0.2-0.6-0.2c-0.3,0-0.7,0.1-1,0.4s-0.8,0.6-1.2,1.1V83.1z M153.6,81.3
		c0,0.6,0.2,1.1,0.6,1.4s0.9,0.5,1.6,0.5c0.5,0,1-0.1,1.6-0.4s0.9-0.4,1.1-0.4c0.1,0,0.2,0,0.3,0.1s0.1,0.2,0.1,0.3
		c0,0.1,0,0.2-0.1,0.3s-0.2,0.2-0.4,0.3c-0.4,0.2-0.9,0.4-1.3,0.5s-0.9,0.2-1.3,0.2c-1,0-1.7-0.3-2.3-0.8s-0.9-1.3-0.9-2.2
		c0-0.9,0.3-1.7,0.9-2.3s1.4-0.9,2.4-0.9c0.9,0,1.6,0.3,2.2,0.8c0.6,0.5,0.9,1.2,0.9,2c0,0.2,0,0.4-0.1,0.5s-0.4,0.1-0.8,0.1H153.6z
		 M153.6,80.5h4.1c-0.1-0.5-0.3-0.9-0.6-1.2s-0.8-0.5-1.3-0.5c-0.6,0-1,0.1-1.4,0.4S153.7,80,153.6,80.5z M164.9,81.2
		c-0.2-0.1-0.5-0.1-0.7-0.2s-0.4-0.1-0.7-0.1c-0.7,0-1.2,0.1-1.5,0.3s-0.6,0.5-0.6,0.9c0,0.3,0.1,0.5,0.4,0.7s0.5,0.3,0.9,0.3
		c0.5,0,1-0.1,1.5-0.4s0.7-0.6,0.7-0.9V81.2z M165,83.2c-0.3,0.3-0.7,0.6-1.1,0.7s-0.8,0.2-1.3,0.2c-0.6,0-1.1-0.2-1.5-0.5
		s-0.6-0.8-0.6-1.4c0-0.7,0.3-1.2,0.8-1.6s1.2-0.6,2.2-0.6c0.2,0,0.5,0,0.7,0s0.5,0.1,0.8,0.1v0c0-0.5-0.1-0.8-0.3-1.1
		s-0.6-0.3-1.1-0.3c-0.3,0-0.7,0.1-1.1,0.3s-0.7,0.3-0.8,0.3c-0.1,0-0.2,0-0.3-0.1s-0.1-0.2-0.1-0.4c0-0.2,0.2-0.5,0.7-0.6
		s1.1-0.3,1.8-0.3c0.7,0,1.3,0.2,1.7,0.6s0.6,0.9,0.6,1.7v2.9h0.3c0.3,0,0.5,0,0.6,0.1s0.2,0.2,0.2,0.3c0,0.2,0,0.3-0.1,0.3
		s-0.2,0.1-0.4,0.1h-1c-0.1,0-0.2,0-0.3-0.1s-0.1-0.2-0.2-0.3L165,83.2z"/>
	
		<g id="Group-2" transform="translate(118.500000, 107.000000) rotate(-180.000000) translate(-118.500000, -107.000000) translate(67.000000, 91.000000)">
		<path id="Line-4-Copy" class="st2" d="M102,32V19"/>
		<path id="Line-4-Copy-2" class="st2" d="M1,32V19"/>
		<path id="Line-5-Copy" class="st2" d="M102,18H1"/>
		<path id="Line-6-Copy" class="st2" d="M52,18V0"/>
	</g>
	
		<g id="Group-2-Copy" transform="translate(257.000000, 107.000000) rotate(-180.000000) translate(-257.000000, -107.000000) translate(175.000000, 91.000000)">
		<path id="Line-4-Copy_1_" class="st2" d="M163,32V19"/>
		<path id="Line-4-Copy-2_1_" class="st2" d="M1,32V19"/>
		<path id="Line-5-Copy_1_" class="st2" d="M163,18H1"/>
		<path id="Line-6-Copy_1_" class="st2" d="M82,18V0"/>
	</g>
	<path id="IDENTIFIER" class="st3" d="M90.3,138v-7.9h1.5v7.9H90.3z M95,136.8h1c0.9,0,1.6-0.2,2.1-0.7s0.7-1.2,0.7-2.1
		c0-1-0.2-1.7-0.7-2.1s-1.2-0.7-2.2-0.7H95V136.8z M93.5,138v-7.9h2.3c0.7,0,1.3,0.1,1.8,0.2s1,0.4,1.4,0.7s0.7,0.7,0.9,1.2
		s0.3,1.1,0.3,1.7c0,1.3-0.4,2.2-1.1,2.9s-1.8,1-3.2,1H93.5z M101.6,138v-7.9h4.8l-0.1,1.2h-3.3v2h3.1v1.2h-3.1v2.4h3.4l0,1.2H101.6
		z M107.8,138v-7.9h1.5c0.3,0.4,0.8,1.3,1.7,2.6s1.4,2.1,1.6,2.4c0.1,0.1,0.1,0.2,0.3,0.4s0.2,0.3,0.3,0.4c0-1.2,0-1.9,0-1.9v-4h1.3
		v7.9h-1.6l-3.6-5.5l-0.3-0.4c0,0.9,0,1.6,0,2v4H107.8z M117.7,138v-6.7h-2.3v-1.2h6v1.2h-2.3v6.7H117.7z M122.4,138v-7.9h1.5v7.9
		H122.4z M125.6,138v-7.9h4.7l-0.1,1.2H127v2.2h3v1.1h-3v3.3H125.6z M131.6,138v-7.9h1.5v7.9H131.6z M134.8,138v-7.9h4.8l-0.1,1.2
		h-3.3v2h3.1v1.2h-3.1v2.4h3.4l0,1.2H134.8z M140.9,138v-7.9h2.9c0.4,0,0.7,0,1,0.1s0.6,0.1,0.8,0.2s0.5,0.2,0.6,0.4
		s0.3,0.4,0.4,0.6s0.1,0.6,0.1,0.9c0,1-0.5,1.7-1.4,2.1c0.2,0.2,0.4,0.6,0.7,1.2l1.2,2.4h-1.6l-0.9-2.1c-0.3-0.7-0.6-1.2-0.6-1.3
		c-0.1,0-0.3,0-0.6,0l-1.2,0v3.4H140.9z M143.9,133.6c0.6,0,1-0.1,1.2-0.3s0.4-0.5,0.4-1c0-0.4-0.1-0.7-0.4-0.9s-0.6-0.3-1.1-0.3
		h-1.7v2.4c0.1,0,0.3,0,0.8,0S143.9,133.6,143.9,133.6z"/>
	<path id="ARGUMENTS-AS-VALUES" class="st3" d="M194,138l2.9-7.9h1.6l2.9,7.9h-1.5l-0.8-2.2h-2.8l-0.8,2.2H194z M196.7,134.7h2
		c-0.6-2.1-1-3.1-1-3.2L196.7,134.7z M202.1,138v-7.9h2.9c0.4,0,0.7,0,1,0.1s0.6,0.1,0.8,0.2s0.5,0.2,0.6,0.4s0.3,0.4,0.4,0.6
		s0.1,0.6,0.1,0.9c0,1-0.5,1.7-1.4,2.1c0.2,0.2,0.4,0.6,0.7,1.2l1.2,2.4h-1.6l-0.9-2.1c-0.3-0.7-0.6-1.2-0.6-1.3c-0.1,0-0.3,0-0.6,0
		l-1.2,0v3.4H202.1z M205.1,133.6c0.6,0,1-0.1,1.2-0.3s0.4-0.5,0.4-1c0-0.4-0.1-0.7-0.4-0.9s-0.6-0.3-1.1-0.3h-1.7v2.4
		c0.1,0,0.3,0,0.8,0S205.1,133.6,205.1,133.6z M213.1,138.1c-1.2,0-2.1-0.4-2.8-1.1s-1-1.7-1-3c0-0.8,0.2-1.5,0.5-2.1
		s0.8-1.1,1.4-1.4s1.3-0.5,2.2-0.5c1,0,1.8,0.2,2.5,0.6l-0.5,1.1c-0.7-0.4-1.3-0.5-2-0.5c-0.8,0-1.4,0.3-1.9,0.8s-0.7,1.2-0.7,2.1
		c0,0.9,0.2,1.6,0.6,2.1s1,0.8,1.8,0.8c0.5,0,1-0.1,1.4-0.2v-1.8h-1.6l0-1.1h3v3.8c-0.5,0.2-0.9,0.3-1.4,0.4
		S213.6,138.1,213.1,138.1z M220.5,138.1c-1,0-1.8-0.3-2.3-0.8s-0.8-1.2-0.8-2.2v-5h1.5v4.9c0,0.7,0.1,1.1,0.4,1.4s0.7,0.5,1.3,0.5
		c0.6,0,1-0.2,1.3-0.5s0.4-0.8,0.4-1.4v-4.9h1.5v5c0,0.9-0.3,1.6-0.8,2.2C222.4,137.9,221.6,138.1,220.5,138.1z M225.3,138v-7.9h1.7
		l2.4,5.7l2.4-5.7h1.7v7.9h-1.3v-3.9l0-2.2l-0.2,0.6l-2,5h-1.2l-2-5l-0.2-0.6l0,2.3v3.9H225.3z M235.2,138v-7.9h4.8l-0.1,1.2h-3.3v2
		h3.1v1.2h-3.1v2.4h3.4l0,1.2H235.2z M241.4,138v-7.9h1.5c0.3,0.4,0.8,1.3,1.7,2.6s1.4,2.1,1.6,2.4c0.1,0.1,0.1,0.2,0.3,0.4
		s0.2,0.3,0.3,0.4c0-1.2,0-1.9,0-1.9v-4h1.3v7.9h-1.6l-3.6-5.5l-0.3-0.4c0,0.9,0,1.6,0,2v4H241.4z M251.3,138v-6.7H249v-1.2h6v1.2
		h-2.3v6.7H251.3z M258.2,138.1c-0.9,0-1.8-0.2-2.6-0.7l0.4-1.2c0.3,0.2,0.7,0.3,1.1,0.5s0.8,0.2,1.2,0.2c0.5,0,0.8-0.1,1-0.3
		s0.4-0.5,0.4-0.9c0-0.5-0.3-0.8-1-1c0,0-0.2-0.1-0.4-0.1s-0.4-0.1-0.6-0.2s-0.3-0.1-0.4-0.1c-1.1-0.4-1.6-1.1-1.6-2.1
		c0-0.7,0.3-1.3,0.8-1.6c0.5-0.4,1.2-0.6,2-0.6c0.9,0,1.8,0.2,2.5,0.6l-0.4,1.1c-0.7-0.3-1.4-0.5-2-0.5c-0.4,0-0.8,0.1-1,0.2
		s-0.3,0.4-0.4,0.8c0,0.4,0.2,0.7,0.6,0.9c0.1,0,0.3,0.1,0.6,0.2s0.6,0.2,0.7,0.2c0.7,0.2,1.2,0.5,1.5,0.9s0.5,0.8,0.5,1.5
		c0,0.7-0.3,1.3-0.8,1.7S259.1,138.1,258.2,138.1z M264.4,138l2.9-7.9h1.6l2.9,7.9h-1.5l-0.8-2.2h-2.8l-0.8,2.2H264.4z M267.1,134.7
		h2c-0.6-2.1-1-3.1-1-3.2L267.1,134.7z M274.8,138.1c-0.9,0-1.8-0.2-2.6-0.7l0.4-1.2c0.3,0.2,0.7,0.3,1.1,0.5s0.8,0.2,1.2,0.2
		c0.5,0,0.8-0.1,1-0.3s0.4-0.5,0.4-0.9c0-0.5-0.3-0.8-1-1c0,0-0.2-0.1-0.4-0.1s-0.4-0.1-0.6-0.2s-0.3-0.1-0.4-0.1
		c-1.1-0.4-1.6-1.1-1.6-2.1c0-0.7,0.3-1.3,0.8-1.6s1.2-0.6,2-0.6c0.9,0,1.8,0.2,2.5,0.6l-0.4,1.1c-0.7-0.3-1.4-0.5-2-0.5
		c-0.4,0-0.8,0.1-1,0.2s-0.3,0.4-0.4,0.8c0,0.4,0.2,0.7,0.6,0.9c0.1,0,0.3,0.1,0.6,0.2s0.6,0.2,0.7,0.2c0.7,0.2,1.2,0.5,1.5,0.9
		s0.5,0.8,0.5,1.5c0,0.7-0.3,1.3-0.8,1.7S275.7,138.1,274.8,138.1z"/>
	<path id="Path" class="st4" d="M116.1,28.1h2.1c0.2,0,0.3,0,0.4,0.1s0.1,0.2,0.1,0.3c0,0.2,0,0.3-0.1,0.4c-0.1,0.1-0.2,0.1-0.4,0.1
		H114c-0.2,0-0.3,0-0.4-0.1s-0.1-0.2-0.1-0.3c0-0.1,0-0.3,0.1-0.3s0.2-0.1,0.4-0.1h1.1V24h-0.4c-0.4,0-0.7,0-0.8-0.1
		s-0.2-0.2-0.2-0.4c0-0.1,0-0.3,0.1-0.3s0.2-0.1,0.4-0.1h1.4c0.1,0,0.2,0,0.3,0.1s0.1,0.1,0.1,0.2v1.1c0.4-0.5,0.8-0.9,1.3-1.1
		s0.9-0.4,1.4-0.4c0.4,0,0.7,0.1,0.9,0.2s0.3,0.3,0.3,0.6c0,0.2-0.1,0.3-0.2,0.4s-0.2,0.2-0.4,0.2c-0.1,0-0.3-0.1-0.5-0.2
		s-0.4-0.2-0.6-0.2c-0.3,0-0.7,0.1-1,0.4s-0.8,0.6-1.2,1.1V28.1z"/>
	<path id="Combined-Shape" class="st4" d="M122.4,26.3c0,0.6,0.2,1.1,0.6,1.4s0.9,0.5,1.6,0.5c0.5,0,1-0.1,1.6-0.4s0.9-0.4,1.1-0.4
		c0.1,0,0.2,0,0.3,0.1s0.1,0.2,0.1,0.3c0,0.1,0,0.2-0.1,0.3s-0.2,0.2-0.4,0.3c-0.4,0.2-0.9,0.4-1.3,0.5s-0.9,0.2-1.3,0.2
		c-1,0-1.7-0.3-2.3-0.8s-0.9-1.3-0.9-2.2c0-0.9,0.3-1.7,0.9-2.3s1.4-0.9,2.4-0.9c0.9,0,1.6,0.3,2.2,0.8s0.9,1.2,0.9,2
		c0,0.2,0,0.4-0.1,0.5s-0.4,0.1-0.8,0.1H122.4z M122.4,25.5h4.1c-0.1-0.5-0.3-0.9-0.6-1.2s-0.8-0.5-1.3-0.5c-0.6,0-1,0.1-1.4,0.4
		S122.5,25,122.4,25.5z"/>
	<path id="Path_1_" class="st4" d="M134.2,23.5L134.2,23.5c0-0.2,0-0.3,0.1-0.3s0.2-0.1,0.4-0.1c0.2,0,0.3,0.1,0.4,0.2
		s0.1,0.3,0.1,0.6V25c0,0.2,0,0.3-0.1,0.4s-0.2,0.1-0.4,0.1c-0.1,0-0.2,0-0.3-0.1s-0.2-0.2-0.3-0.4c-0.2-0.3-0.4-0.6-0.7-0.8
		s-0.6-0.3-1-0.3c-0.7,0-1.2,0.2-1.6,0.6s-0.6,0.9-0.6,1.5c0,0.6,0.2,1.1,0.6,1.5s0.9,0.6,1.5,0.6c0.3,0,0.6,0,0.8-0.1
		s0.5-0.2,0.7-0.4c0.1-0.1,0.2-0.1,0.3-0.2c0.3-0.2,0.5-0.3,0.6-0.3c0.1,0,0.2,0,0.3,0.1s0.1,0.2,0.1,0.3c0,0.3-0.3,0.7-0.9,1
		s-1.3,0.5-2,0.5c-0.9,0-1.7-0.3-2.3-0.9S129,27,129,26.1s0.3-1.6,0.9-2.2s1.4-0.9,2.3-0.9c0.3,0,0.6,0,1,0.1S133.9,23.3,134.2,23.5
		z"/>
	<path id="Path_2_" class="st4" d="M141.8,23.5c0.2,0,0.4,0,0.5,0.1s0.1,0.2,0.1,0.3c0,0.1,0,0.3-0.1,0.3s-0.2,0.1-0.4,0.1h-2.6v2.1
		c0,0.7,0.1,1.2,0.3,1.4s0.5,0.3,0.9,0.3c0.4,0,0.8-0.1,1.4-0.3c0.5-0.2,0.9-0.3,1-0.3c0.1,0,0.2,0,0.3,0.1s0.1,0.2,0.1,0.3
		c0,0.1-0.1,0.3-0.2,0.4s-0.3,0.2-0.5,0.3c-0.4,0.2-0.8,0.3-1.1,0.4s-0.6,0.1-0.9,0.1c-0.5,0-0.9-0.1-1.2-0.2s-0.6-0.4-0.8-0.7
		c-0.1-0.1-0.1-0.3-0.2-0.5s-0.1-0.5-0.1-0.9v-2.3h-1.1c-0.2,0-0.3,0-0.4-0.1s-0.1-0.2-0.1-0.3c0-0.2,0.1-0.3,0.2-0.4
		s0.3-0.1,0.7-0.1h0.7v-1.6c0-0.2,0-0.3,0.1-0.4s0.2-0.1,0.4-0.1c0.2,0,0.3,0.1,0.4,0.2s0.1,0.3,0.1,0.7v1.3H141.8z"/>
	<path id="Path_3_" class="st4" d="M146.3,27.4l1.1-3.8c0-0.1,0.1-0.2,0.1-0.3s0.1-0.1,0.3-0.1h0.3c0.1,0,0.2,0,0.3,0.1
		s0.1,0.1,0.1,0.2l1.2,3.8l0.6-5h-1c-0.2,0-0.3,0-0.4-0.1s-0.1-0.2-0.1-0.3c0-0.2,0-0.3,0.1-0.3s0.2-0.1,0.5-0.1h2.1
		c0.1,0,0.2,0,0.2,0.1s0.1,0.2,0.1,0.3c0,0.1,0,0.3-0.1,0.3s-0.2,0.1-0.4,0.1h-0.1l-0.9,6.3c0,0.1,0,0.2-0.1,0.3s-0.1,0.1-0.2,0.1
		h-0.5c-0.1,0-0.2,0-0.2-0.1s-0.1-0.1-0.1-0.2l-1.4-4.4l-1.2,4.4c0,0.1-0.1,0.2-0.1,0.2s-0.1,0.1-0.2,0.1h-0.5c-0.1,0-0.1,0-0.2-0.1
		s-0.1-0.1-0.1-0.3l-1-6.3h-0.1c-0.2,0-0.3,0-0.4-0.1S144,22,144,21.9c0-0.1,0-0.2,0.1-0.3s0.2-0.1,0.2-0.1h2.1c0.2,0,0.4,0,0.5,0.1
		s0.1,0.2,0.1,0.3c0,0.1,0,0.3-0.1,0.3s-0.2,0.1-0.4,0.1h-0.9L146.3,27.4z"/>
	<path id="Path_4_" class="st4" d="M155.1,21.3c0-0.5,0-0.7,0.1-0.9s0.3-0.2,0.5-0.2c0.3,0,0.4,0,0.5,0.1s0.1,0.3,0.1,0.7
		c0,0.4,0,0.6-0.1,0.7s-0.3,0.1-0.5,0.1c-0.3,0-0.4,0-0.5-0.1S155.1,21.6,155.1,21.3z"/>
	<path id="Path_5_" class="st4" d="M156.3,28.1h2c0.2,0,0.3,0,0.4,0.1s0.1,0.2,0.1,0.3c0,0.2,0,0.3-0.1,0.4
		c-0.1,0.1-0.2,0.1-0.4,0.1h-4.9c-0.2,0-0.3,0-0.4-0.1s-0.1-0.2-0.1-0.3c0-0.1,0-0.3,0.1-0.3s0.2-0.1,0.4-0.1h1.9V24h-1.2
		c-0.2,0-0.3,0-0.4-0.1s-0.1-0.2-0.1-0.3s0-0.3,0.1-0.3s0.2-0.1,0.4-0.1h1.9c0.1,0,0.2,0,0.3,0.1s0.1,0.1,0.1,0.2V28.1z"/>
	<path id="Combined-Shape_1_" class="st4" d="M165.4,29c-0.1,0-0.2,0-0.2-0.1s-0.1-0.1-0.1-0.3v-0.5c-0.3,0.3-0.6,0.6-1,0.7
		s-0.8,0.3-1.2,0.3c-0.8,0-1.5-0.3-2-0.9s-0.8-1.3-0.8-2.1c0-0.9,0.3-1.6,0.9-2.2c0.6-0.6,1.3-0.9,2.2-0.9c0.4,0,0.8,0.1,1.2,0.2
		s0.6,0.4,0.9,0.7v-2.4h-0.3c-0.4,0-0.6,0-0.7-0.1s-0.2-0.2-0.2-0.4c0-0.2,0-0.3,0.1-0.3s0.2-0.1,0.4-0.1h1.3c0.1,0,0.2,0,0.3,0.1
		s0.1,0.1,0.1,0.2v7.2h0.3c0.2,0,0.4,0,0.5,0.1s0.1,0.2,0.1,0.3c0,0.1,0,0.3-0.1,0.3s-0.2,0.1-0.3,0.1H165.4z M161.3,26.1
		c0,0.6,0.2,1.1,0.6,1.4s0.9,0.6,1.4,0.6c0.6,0,1.1-0.2,1.4-0.6s0.6-0.9,0.6-1.5c0-0.6-0.2-1.1-0.6-1.5s-0.9-0.6-1.4-0.6
		c-0.6,0-1.1,0.2-1.4,0.6S161.3,25.5,161.3,26.1z"/>
	<path id="Path_6_" class="st4" d="M173,23.5c0.2,0,0.4,0,0.5,0.1s0.1,0.2,0.1,0.3c0,0.1,0,0.3-0.1,0.3s-0.2,0.1-0.4,0.1h-2.6v2.1
		c0,0.7,0.1,1.2,0.3,1.4s0.5,0.3,0.9,0.3c0.4,0,0.8-0.1,1.4-0.3c0.5-0.2,0.9-0.3,1-0.3c0.1,0,0.2,0,0.3,0.1s0.1,0.2,0.1,0.3
		c0,0.1-0.1,0.3-0.2,0.4s-0.3,0.2-0.5,0.3c-0.4,0.2-0.8,0.3-1.1,0.4s-0.6,0.1-0.9,0.1c-0.5,0-0.9-0.1-1.2-0.2s-0.6-0.4-0.8-0.7
		c-0.1-0.1-0.1-0.3-0.2-0.5s-0.1-0.5-0.1-0.9v-2.3h-1.1c-0.2,0-0.3,0-0.4-0.1s-0.1-0.2-0.1-0.3c0-0.2,0.1-0.3,0.2-0.4
		s0.3-0.1,0.7-0.1h0.7v-1.6c0-0.2,0-0.3,0.1-0.4s0.2-0.1,0.4-0.1c0.2,0,0.3,0.1,0.4,0.2s0.1,0.3,0.1,0.7v1.3H173z"/>
	<path id="Path_7_" class="st4" d="M176.7,28.1v-6.5h-0.1c-0.3,0-0.5,0-0.6-0.1s-0.2-0.2-0.2-0.4c0-0.2,0-0.3,0.1-0.3
		s0.2-0.1,0.4-0.1h1c0.1,0,0.2,0,0.3,0.1s0.1,0.1,0.1,0.2v2.9c0.3-0.3,0.6-0.5,0.9-0.6s0.6-0.2,0.9-0.2c0.6,0,1.1,0.2,1.5,0.6
		s0.5,0.9,0.5,1.7v2.9h0.3c0.2,0,0.4,0,0.5,0.1s0.1,0.2,0.1,0.3s0,0.3-0.1,0.3S182.2,29,182,29h-1.7c-0.2,0-0.3,0-0.4-0.1
		c-0.1-0.1-0.1-0.2-0.1-0.4c0-0.2,0-0.3,0.1-0.3s0.3-0.1,0.5-0.1h0.2v-2.6c0-0.5-0.1-0.9-0.3-1.1s-0.6-0.4-1-0.4
		c-0.4,0-0.8,0.1-1.1,0.4s-0.5,0.7-0.5,1.1v2.6h0.2c0.3,0,0.4,0,0.5,0.1s0.1,0.2,0.1,0.3c0,0.2,0,0.3-0.1,0.4
		c-0.1,0.1-0.2,0.1-0.4,0.1h-1.7c-0.2,0-0.3,0-0.4-0.1s-0.1-0.2-0.1-0.3c0-0.2,0-0.3,0.1-0.3s0.3-0.1,0.6-0.1H176.7z"/>
	<path id="Path_8_" class="st4" d="M116.1,45.1h2.1c0.2,0,0.3,0,0.4,0.1s0.1,0.2,0.1,0.3c0,0.2,0,0.3-0.1,0.4s-0.2,0.1-0.4,0.1H114
		c-0.2,0-0.3,0-0.4-0.1s-0.1-0.2-0.1-0.3c0-0.1,0-0.3,0.1-0.3s0.2-0.1,0.4-0.1h1.1V41h-0.4c-0.4,0-0.7,0-0.8-0.1s-0.2-0.2-0.2-0.4
		c0-0.1,0-0.3,0.1-0.3s0.2-0.1,0.4-0.1h1.4c0.1,0,0.2,0,0.3,0.1s0.1,0.1,0.1,0.2v1.1c0.4-0.5,0.8-0.9,1.3-1.1s0.9-0.4,1.4-0.4
		c0.4,0,0.7,0.1,0.9,0.2s0.3,0.3,0.3,0.6c0,0.2-0.1,0.3-0.2,0.4s-0.2,0.2-0.4,0.2c-0.1,0-0.3-0.1-0.5-0.2s-0.4-0.2-0.6-0.2
		c-0.3,0-0.7,0.1-1,0.4s-0.8,0.6-1.2,1.1V45.1z"/>
	<path id="Combined-Shape_2_" class="st4" d="M122.4,43.3c0,0.6,0.2,1.1,0.6,1.4s0.9,0.5,1.6,0.5c0.5,0,1-0.1,1.6-0.4
		s0.9-0.4,1.1-0.4c0.1,0,0.2,0,0.3,0.1s0.1,0.2,0.1,0.3c0,0.1,0,0.2-0.1,0.3s-0.2,0.2-0.4,0.3c-0.4,0.2-0.9,0.4-1.3,0.5
		s-0.9,0.2-1.3,0.2c-1,0-1.7-0.3-2.3-0.8s-0.9-1.3-0.9-2.2c0-0.9,0.3-1.7,0.9-2.3s1.4-0.9,2.4-0.9c0.9,0,1.6,0.3,2.2,0.8
		s0.9,1.2,0.9,2c0,0.2,0,0.4-0.1,0.5s-0.4,0.1-0.8,0.1H122.4z M122.4,42.5h4.1c-0.1-0.5-0.3-0.9-0.6-1.2s-0.8-0.5-1.3-0.5
		c-0.6,0-1,0.1-1.4,0.4S122.5,42,122.4,42.5z"/>
	<path id="Path_9_" class="st4" d="M134.2,40.5L134.2,40.5c0-0.2,0-0.3,0.1-0.3s0.2-0.1,0.4-0.1c0.2,0,0.3,0.1,0.4,0.2
		s0.1,0.3,0.1,0.6V42c0,0.2,0,0.3-0.1,0.4s-0.2,0.1-0.4,0.1c-0.1,0-0.2,0-0.3-0.1s-0.2-0.2-0.3-0.4c-0.2-0.3-0.4-0.6-0.7-0.8
		s-0.6-0.3-1-0.3c-0.7,0-1.2,0.2-1.6,0.6s-0.6,0.9-0.6,1.5c0,0.6,0.2,1.1,0.6,1.5s0.9,0.6,1.5,0.6c0.3,0,0.6,0,0.8-0.1
		s0.5-0.2,0.7-0.4c0.1-0.1,0.2-0.1,0.3-0.2c0.3-0.2,0.5-0.3,0.6-0.3c0.1,0,0.2,0,0.3,0.1s0.1,0.2,0.1,0.3c0,0.3-0.3,0.7-0.9,1
		s-1.3,0.5-2,0.5c-0.9,0-1.7-0.3-2.3-0.9S129,44,129,43.1s0.3-1.6,0.9-2.2s1.4-0.9,2.3-0.9c0.3,0,0.6,0,1,0.1S133.9,40.3,134.2,40.5
		z"/>
	<path id="Path_10_" class="st4" d="M141.8,40.5c0.2,0,0.4,0,0.5,0.1s0.1,0.2,0.1,0.3c0,0.1,0,0.3-0.1,0.3s-0.2,0.1-0.4,0.1h-2.6
		v2.1c0,0.7,0.1,1.2,0.3,1.4s0.5,0.3,0.9,0.3c0.4,0,0.8-0.1,1.4-0.3c0.5-0.2,0.9-0.3,1-0.3c0.1,0,0.2,0,0.3,0.1s0.1,0.2,0.1,0.3
		c0,0.1-0.1,0.3-0.2,0.4s-0.3,0.2-0.5,0.3c-0.4,0.2-0.8,0.3-1.1,0.4s-0.6,0.1-0.9,0.1c-0.5,0-0.9-0.1-1.2-0.2s-0.6-0.4-0.8-0.7
		c-0.1-0.1-0.1-0.3-0.2-0.5s-0.1-0.5-0.1-0.9v-2.3h-1.1c-0.2,0-0.3,0-0.4-0.1s-0.1-0.2-0.1-0.3c0-0.2,0.1-0.3,0.2-0.4
		s0.3-0.1,0.7-0.1h0.7v-1.6c0-0.2,0-0.3,0.1-0.4s0.2-0.1,0.4-0.1c0.2,0,0.3,0.1,0.4,0.2s0.1,0.3,0.1,0.7v1.3H141.8z"/>
	<path id="Path_11_" class="st4" d="M146.4,45.1h0.4c0.2,0,0.4,0,0.5,0.1s0.2,0.2,0.2,0.3c0,0.2,0,0.3-0.1,0.4s-0.3,0.1-0.6,0.1
		h-1.7c-0.2,0-0.3,0-0.4-0.1s-0.1-0.2-0.1-0.3c0-0.2,0-0.3,0.1-0.3s0.3-0.1,0.5-0.1h0.1v-5.7h-0.1c-0.3,0-0.4,0-0.5-0.1
		s-0.1-0.2-0.1-0.4c0-0.2,0-0.3,0.1-0.3s0.2-0.1,0.4-0.1h1.6c0.3,0,0.6,0,0.6,0.1s0.1,0.2,0.1,0.4c0,0.2-0.1,0.3-0.2,0.4
		s-0.3,0.1-0.6,0.1h-0.3v2.2h3v-2.2H149c-0.2,0-0.4,0-0.5-0.1s-0.2-0.2-0.2-0.3c0-0.2,0-0.3,0.1-0.4s0.3-0.1,0.7-0.1h1.5
		c0.2,0,0.3,0,0.3,0.1s0.1,0.2,0.1,0.3c0,0.2,0,0.3-0.1,0.4s-0.2,0.1-0.5,0.1h-0.2v5.7h0.1c0.3,0,0.4,0,0.5,0.1s0.1,0.2,0.1,0.3
		c0,0.2,0,0.3-0.1,0.4s-0.3,0.1-0.6,0.1h-1.3c-0.3,0-0.6,0-0.7-0.1s-0.1-0.2-0.1-0.4c0-0.2,0.1-0.3,0.2-0.3s0.3-0.1,0.6-0.1h0.3
		v-2.6h-3V45.1z"/>
	<path id="Combined-Shape_3_" class="st4" d="M153.6,43.3c0,0.6,0.2,1.1,0.6,1.4s0.9,0.5,1.6,0.5c0.5,0,1-0.1,1.6-0.4
		s0.9-0.4,1.1-0.4c0.1,0,0.2,0,0.3,0.1s0.1,0.2,0.1,0.3c0,0.1,0,0.2-0.1,0.3s-0.2,0.2-0.4,0.3c-0.4,0.2-0.9,0.4-1.3,0.5
		s-0.9,0.2-1.3,0.2c-1,0-1.7-0.3-2.3-0.8s-0.9-1.3-0.9-2.2c0-0.9,0.3-1.7,0.9-2.3s1.4-0.9,2.4-0.9c0.9,0,1.6,0.3,2.2,0.8
		c0.6,0.5,0.9,1.2,0.9,2c0,0.2,0,0.4-0.1,0.5s-0.4,0.1-0.8,0.1H153.6z M153.6,42.5h4.1c-0.1-0.5-0.3-0.9-0.6-1.2s-0.8-0.5-1.3-0.5
		c-0.6,0-1,0.1-1.4,0.4S153.7,42,153.6,42.5z"/>
	<path id="Path_12_" class="st4" d="M162.9,38.3c0-0.5,0-0.7,0.1-0.9c0.1-0.1,0.3-0.2,0.5-0.2c0.3,0,0.4,0,0.5,0.1s0.1,0.3,0.1,0.7
		c0,0.4,0,0.6-0.1,0.7s-0.3,0.1-0.5,0.1c-0.3,0-0.4,0-0.5-0.1S162.9,38.6,162.9,38.3z"/>
	<path id="Path_13_" class="st4" d="M164.1,45.1h2c0.2,0,0.3,0,0.4,0.1s0.1,0.2,0.1,0.3c0,0.2,0,0.3-0.1,0.4s-0.2,0.1-0.4,0.1h-4.9
		c-0.2,0-0.3,0-0.4-0.1s-0.1-0.2-0.1-0.3c0-0.1,0-0.3,0.1-0.3s0.2-0.1,0.4-0.1h1.9V41h-1.2c-0.2,0-0.3,0-0.4-0.1s-0.1-0.2-0.1-0.3
		s0-0.3,0.1-0.3s0.2-0.1,0.4-0.1h1.9c0.1,0,0.2,0,0.3,0.1s0.1,0.1,0.1,0.2V45.1z"/>
	<path id="Combined-Shape_4_" class="st4" d="M173.9,45.7c0,0.6,0,1-0.1,1.3s-0.2,0.5-0.3,0.7c-0.2,0.3-0.6,0.6-1,0.7
		s-0.9,0.2-1.5,0.2c-0.5,0-0.8,0-1.1-0.1s-0.3-0.2-0.3-0.4c0-0.1,0.1-0.2,0.2-0.3s0.2-0.1,0.4-0.1c0.1,0,0.3,0,0.5,0s0.4,0,0.5,0
		c0.6,0,1.1-0.1,1.3-0.4s0.4-0.8,0.4-1.5v-0.8c-0.3,0.3-0.5,0.5-0.9,0.7s-0.7,0.2-1.1,0.2c-0.8,0-1.4-0.3-2-0.8
		c-0.5-0.5-0.8-1.2-0.8-2c0-0.8,0.3-1.5,0.8-2s1.2-0.8,2-0.8c0.3,0,0.6,0.1,1,0.2s0.6,0.3,0.9,0.5v-0.5c0-0.1,0-0.2,0.1-0.2
		s0.1-0.1,0.3-0.1h1c0.2,0,0.3,0,0.4,0.1s0.1,0.2,0.1,0.3c0,0.2-0.1,0.3-0.2,0.4S174.3,41,174,41h-0.1V45.7z M171.1,41.1
		c-0.6,0-1,0.2-1.4,0.5s-0.5,0.8-0.5,1.3c0,0.5,0.2,1,0.5,1.3s0.8,0.5,1.4,0.5c0.6,0,1-0.2,1.4-0.5s0.5-0.8,0.5-1.3s-0.2-1-0.5-1.3
		S171.7,41.1,171.1,41.1z"/>
	<path id="Path_14_" class="st4" d="M176.7,45.1v-6.5h-0.1c-0.3,0-0.5,0-0.6-0.1s-0.2-0.2-0.2-0.4c0-0.2,0-0.3,0.1-0.3
		s0.2-0.1,0.4-0.1h1c0.1,0,0.2,0,0.3,0.1s0.1,0.1,0.1,0.2v2.9c0.3-0.3,0.6-0.5,0.9-0.6s0.6-0.2,0.9-0.2c0.6,0,1.1,0.2,1.5,0.6
		s0.5,0.9,0.5,1.7v2.9h0.3c0.2,0,0.4,0,0.5,0.1s0.1,0.2,0.1,0.3s0,0.3-0.1,0.3S182.2,46,182,46h-1.7c-0.2,0-0.3,0-0.4-0.1
		s-0.1-0.2-0.1-0.4c0-0.2,0-0.3,0.1-0.3s0.3-0.1,0.5-0.1h0.2v-2.6c0-0.5-0.1-0.9-0.3-1.1s-0.6-0.4-1-0.4c-0.4,0-0.8,0.1-1.1,0.4
		s-0.5,0.7-0.5,1.1v2.6h0.2c0.3,0,0.4,0,0.5,0.1s0.1,0.2,0.1,0.3c0,0.2,0,0.3-0.1,0.4S178.2,46,178,46h-1.7c-0.2,0-0.3,0-0.4-0.1
		s-0.1-0.2-0.1-0.3c0-0.2,0-0.3,0.1-0.3s0.3-0.1,0.6-0.1H176.7z"/>
	<path id="Path_15_" class="st4" d="M188.6,40.5c0.2,0,0.4,0,0.5,0.1s0.1,0.2,0.1,0.3c0,0.1,0,0.3-0.1,0.3s-0.2,0.1-0.4,0.1h-2.6
		v2.1c0,0.7,0.1,1.2,0.3,1.4s0.5,0.3,0.9,0.3c0.4,0,0.8-0.1,1.4-0.3c0.5-0.2,0.9-0.3,1-0.3c0.1,0,0.2,0,0.3,0.1s0.1,0.2,0.1,0.3
		c0,0.1-0.1,0.3-0.2,0.4s-0.3,0.2-0.5,0.3c-0.4,0.2-0.8,0.3-1.1,0.4s-0.6,0.1-0.9,0.1c-0.5,0-0.9-0.1-1.2-0.2s-0.6-0.4-0.8-0.7
		c-0.1-0.1-0.1-0.3-0.2-0.5s-0.1-0.5-0.1-0.9v-2.3h-1.1c-0.2,0-0.3,0-0.4-0.1s-0.1-0.2-0.1-0.3c0-0.2,0.1-0.3,0.2-0.4
		s0.3-0.1,0.7-0.1h0.7v-1.6c0-0.2,0-0.3,0.1-0.4s0.2-0.1,0.4-0.1c0.2,0,0.3,0.1,0.4,0.2s0.1,0.3,0.1,0.7v1.3H188.6z"/>
	<path id="Path_16_" class="st5" d="M191.9,25.6h5.7c0.1,0,0.2,0,0.3,0.1s0.1,0.2,0.1,0.3c0,0.2,0,0.3-0.1,0.3s-0.2,0.1-0.3,0.1
		h-5.7c-0.1,0-0.2,0-0.3-0.1s-0.1-0.2-0.1-0.3s0-0.3,0.1-0.3S191.7,25.6,191.9,25.6z"/>
	<path id="Path_17_" class="st5" d="M191.9,23.5h5.7c0.1,0,0.2,0,0.3,0.1s0.1,0.2,0.1,0.3c0,0.2,0,0.3-0.1,0.3s-0.2,0.1-0.3,0.1
		h-5.7c-0.1,0-0.2,0-0.3-0.1s-0.1-0.2-0.1-0.4c0-0.2,0-0.3,0.1-0.3S191.7,23.5,191.9,23.5z"/>
	<path id="Path_18_" class="st5" d="M225.1,27.5c0-0.1,0.1-0.2,0.1-0.3s0.1-0.1,0.3-0.1h1.3c0.1,0,0.1,0,0.1,0s0.1,0.1,0.1,0.1
		c0,0,0,0,0,0.1s0,0.1,0,0.1l-1.6,3.4c0,0.1-0.1,0.1-0.1,0.1s-0.1,0-0.1,0c0,0-0.1,0-0.1,0s0,0,0,0l-0.4-0.2c-0.1,0-0.1-0.1-0.1-0.1
		s0-0.1,0-0.1c0,0,0,0,0-0.1s0-0.1,0-0.1L225.1,27.5z"/>
	<path id="Path_19_" class="st5" d="M224.6,24.4c0-0.3,0.1-0.6,0.3-0.8s0.5-0.3,0.9-0.3c0.4,0,0.7,0.1,0.9,0.3s0.3,0.5,0.3,0.8
		s-0.1,0.6-0.3,0.8s-0.5,0.3-0.9,0.3c-0.4,0-0.7-0.1-0.9-0.3S224.6,24.8,224.6,24.4z"/>
	<path id="Path_20_" class="st5" d="M199.7,42.6h5.7c0.1,0,0.2,0,0.3,0.1s0.1,0.2,0.1,0.3c0,0.2,0,0.3-0.1,0.3s-0.2,0.1-0.3,0.1
		h-5.7c-0.1,0-0.2,0-0.3-0.1s-0.1-0.2-0.1-0.3s0-0.3,0.1-0.3S199.5,42.6,199.7,42.6z"/>
	<path id="Path_21_" class="st5" d="M199.7,40.5h5.7c0.1,0,0.2,0,0.3,0.1s0.1,0.2,0.1,0.3c0,0.2,0,0.3-0.1,0.3s-0.2,0.1-0.3,0.1
		h-5.7c-0.1,0-0.2,0-0.3-0.1s-0.1-0.2-0.1-0.4c0-0.2,0-0.3,0.1-0.3S199.5,40.5,199.7,40.5z"/>
	<path id="Path_22_" class="st5" d="M225.1,44.5c0-0.1,0.1-0.2,0.1-0.3s0.1-0.1,0.3-0.1h1.3c0.1,0,0.1,0,0.1,0s0.1,0.1,0.1,0.1
		c0,0,0,0,0,0.1s0,0.1,0,0.1l-1.6,3.4c0,0.1-0.1,0.1-0.1,0.1s-0.1,0-0.1,0c0,0-0.1,0-0.1,0s0,0,0,0l-0.4-0.2c-0.1,0-0.1-0.1-0.1-0.1
		s0-0.1,0-0.1c0,0,0,0,0-0.1s0-0.1,0-0.1L225.1,44.5z"/>
	<path id="Path_23_" class="st5" d="M224.6,41.4c0-0.3,0.1-0.6,0.3-0.8s0.5-0.3,0.9-0.3c0.4,0,0.7,0.1,0.9,0.3s0.3,0.5,0.3,0.8
		s-0.1,0.6-0.3,0.8s-0.5,0.3-0.9,0.3c-0.4,0-0.7-0.1-0.9-0.3S224.6,41.8,224.6,41.4z"/>
	<path id="Path_24_" class="st6" d="M208.8,22.2l-0.1,0c0,0-0.1,0-0.1,0c-0.1,0-0.2,0-0.3-0.1s-0.1-0.2-0.1-0.3c0-0.1,0-0.2,0.1-0.3
		s0.2-0.1,0.3-0.2l1.9-0.5c0,0,0.1,0,0.1,0s0.1,0,0.1,0c0.1,0,0.1,0,0.2,0.1s0.1,0.2,0.1,0.3v6.9h1c0.4,0,0.6,0,0.7,0.1
		s0.2,0.2,0.2,0.3c0,0.2,0,0.3-0.1,0.3s-0.2,0.1-0.4,0.1h-3.8c-0.2,0-0.3,0-0.4-0.1s-0.1-0.2-0.1-0.3c0-0.2,0.1-0.3,0.2-0.3
		s0.3-0.1,0.7-0.1h1.1v-6.2L208.8,22.2z"/>
	<path id="Combined-Shape_5_" class="st6" d="M218.1,29.2c-0.8,0-1.4-0.4-1.9-1.1c-0.5-0.8-0.7-1.8-0.7-3.1c0-1.3,0.2-2.3,0.7-3.1
		c0.5-0.8,1.1-1.1,1.9-1.1s1.4,0.4,1.9,1.1s0.7,1.8,0.7,3.1s-0.2,2.3-0.7,3.1S218.9,29.2,218.1,29.2z M218.1,21.7
		c-0.5,0-0.9,0.3-1.1,0.9s-0.4,1.4-0.4,2.4c0,1.1,0.1,1.9,0.4,2.4s0.6,0.9,1.1,0.9c0.5,0,0.9-0.3,1.1-0.9s0.4-1.4,0.4-2.4
		c0-1-0.1-1.9-0.4-2.4S218.6,21.7,218.1,21.7z"/>
	<path id="Combined-Shape_6_" class="st6" d="M216.6,41.8c0.2-0.3,0.5-0.5,0.8-0.7s0.6-0.2,0.9-0.2c0.7,0,1.2,0.3,1.7,0.8
		c0.5,0.5,0.7,1.1,0.7,1.9c0,0.8-0.2,1.4-0.7,1.9s-1,0.7-1.7,0.7c-0.8,0-1.5-0.3-2-1s-0.8-1.5-0.8-2.7c0-1.4,0.4-2.6,1.1-3.5
		s1.7-1.3,2.9-1.3c0.4,0,0.7,0,0.8,0.1s0.2,0.2,0.2,0.3c0,0.3-0.2,0.4-0.7,0.4c-0.3,0-0.6,0-0.8,0.1c-0.7,0.1-1.2,0.5-1.6,1
		S216.7,41,216.6,41.8z M216.8,43.5c0,0.5,0.1,0.9,0.4,1.3s0.6,0.5,1.1,0.5c0.4,0,0.7-0.2,1-0.5s0.4-0.7,0.4-1.2
		c0-0.5-0.1-0.9-0.4-1.3s-0.6-0.5-1-0.5c-0.4,0-0.8,0.2-1,0.5S216.8,43,216.8,43.5z"/>
	<path id="Path_25_" class="st5" d="M172.6,76.5c0,0.1-0.1,0.3-0.2,0.6s-0.2,0.5-0.3,0.7c-0.3,0.7-0.5,1.3-0.6,1.8s-0.2,1.1-0.2,1.7
		c0,0.6,0.1,1.1,0.2,1.6s0.3,1,0.5,1.6c0.1,0.3,0.3,0.6,0.4,1s0.3,0.6,0.3,0.7c0,0.1,0,0.2-0.1,0.2s-0.1,0.1-0.2,0.1
		c-0.1,0-0.3-0.1-0.4-0.2s-0.3-0.4-0.6-0.7c-0.5-0.6-0.8-1.3-1-2s-0.3-1.5-0.3-2.2c0-0.7,0.1-1.4,0.3-2s0.5-1.3,0.8-1.9
		c0.2-0.4,0.5-0.7,0.7-0.9s0.4-0.3,0.6-0.3c0.1,0,0.1,0,0.2,0.1S172.6,76.5,172.6,76.5z"/>
	<path id="Path_26_" class="st5" d="M248.6,82.2c0-0.1,0.1-0.2,0.1-0.3s0.1-0.1,0.3-0.1h1.4c0.1,0,0.1,0,0.2,0s0.1,0.1,0.1,0.1
		c0,0,0,0,0,0.1s0,0.1,0,0.1l-1.7,3.6c0,0.1-0.1,0.1-0.1,0.2s-0.1,0.1-0.2,0.1c0,0,0,0,0,0s0,0-0.1,0l-0.4-0.2
		c-0.1,0-0.1-0.1-0.2-0.1s-0.1-0.1-0.1-0.1v-0.1c0,0,0,0,0-0.1L248.6,82.2z"/>
	<path id="Path_27_" class="st5" d="M341.6,86.2c0-0.1,0.1-0.3,0.2-0.6s0.3-0.5,0.3-0.7c0.3-0.7,0.5-1.3,0.6-1.9s0.2-1.1,0.2-1.7
		c0-0.5-0.1-1.1-0.2-1.6s-0.3-1-0.5-1.6c-0.1-0.3-0.3-0.6-0.4-1s-0.3-0.6-0.3-0.7c0-0.1,0-0.2,0.1-0.2s0.1-0.1,0.2-0.1
		c0.1,0,0.3,0.1,0.4,0.2s0.3,0.4,0.6,0.7c0.5,0.6,0.8,1.3,1,2s0.3,1.5,0.3,2.2c0,0.7-0.1,1.4-0.3,2.1s-0.5,1.3-0.8,1.9
		c-0.3,0.4-0.5,0.7-0.7,0.9s-0.4,0.3-0.5,0.3c-0.1,0-0.1,0-0.2-0.1S341.6,86.3,341.6,86.2z"/>
	<path id="Path_28_" class="st5" d="M349.9,82.5c0-0.1,0.1-0.2,0.1-0.3s0.1-0.1,0.3-0.1h1.3c0.1,0,0.1,0,0.1,0s0.1,0.1,0.1,0.1
		c0,0,0,0,0,0.1s0,0.1,0,0.1l-1.6,3.4c0,0.1-0.1,0.1-0.1,0.1s-0.1,0-0.1,0c0,0-0.1,0-0.1,0s0,0,0,0l-0.4-0.2c-0.1,0-0.1-0.1-0.1-0.1
		s0-0.1,0-0.1c0,0,0,0,0-0.1s0-0.1,0-0.1L349.9,82.5z"/>
	<path id="Path_29_" class="st5" d="M349.5,79.4c0-0.3,0.1-0.6,0.3-0.8s0.5-0.3,0.9-0.3c0.4,0,0.7,0.1,0.9,0.3s0.3,0.5,0.3,0.8
		s-0.1,0.6-0.3,0.8s-0.5,0.3-0.9,0.3c-0.4,0-0.7-0.1-0.9-0.3S349.5,79.8,349.5,79.4z"/>
	<path id="Path_30_" class="st4" d="M178.5,83.1h2.1c0.2,0,0.3,0,0.4,0.1s0.1,0.2,0.1,0.3c0,0.2,0,0.3-0.1,0.4s-0.2,0.1-0.4,0.1
		h-4.2c-0.2,0-0.3,0-0.4-0.1s-0.1-0.2-0.1-0.3c0-0.1,0-0.3,0.1-0.3s0.2-0.1,0.4-0.1h1.1V79h-0.4c-0.4,0-0.7,0-0.8-0.1
		s-0.2-0.2-0.2-0.4c0-0.1,0-0.3,0.1-0.3s0.2-0.1,0.4-0.1h1.4c0.1,0,0.2,0,0.3,0.1s0.1,0.1,0.1,0.2v1.1c0.4-0.5,0.8-0.9,1.3-1.1
		s0.9-0.4,1.4-0.4c0.4,0,0.7,0.1,0.9,0.2s0.3,0.3,0.3,0.6c0,0.2-0.1,0.3-0.2,0.4s-0.2,0.2-0.4,0.2c-0.1,0-0.3-0.1-0.5-0.2
		s-0.4-0.2-0.6-0.2c-0.3,0-0.7,0.1-1,0.4s-0.8,0.6-1.2,1.1V83.1z"/>
	<path id="Combined-Shape_7_" class="st4" d="M184.8,81.3c0,0.6,0.2,1.1,0.6,1.4s0.9,0.5,1.6,0.5c0.5,0,1-0.1,1.6-0.4
		s0.9-0.4,1.1-0.4c0.1,0,0.2,0,0.3,0.1s0.1,0.2,0.1,0.3c0,0.1,0,0.2-0.1,0.3s-0.2,0.2-0.4,0.3c-0.4,0.2-0.9,0.4-1.3,0.5
		s-0.9,0.2-1.3,0.2c-1,0-1.7-0.3-2.3-0.8s-0.9-1.3-0.9-2.2c0-0.9,0.3-1.7,0.9-2.3S186,78,187,78c0.9,0,1.6,0.3,2.2,0.8
		s0.9,1.2,0.9,2c0,0.2,0,0.4-0.1,0.5s-0.4,0.1-0.8,0.1H184.8z M184.8,80.5h4.1c-0.1-0.5-0.3-0.9-0.6-1.2s-0.8-0.5-1.3-0.5
		c-0.6,0-1,0.1-1.4,0.4S184.9,80,184.8,80.5z"/>
	<path id="Path_31_" class="st4" d="M196.6,78.5L196.6,78.5c0-0.2,0-0.3,0.1-0.3s0.2-0.1,0.4-0.1c0.2,0,0.3,0.1,0.4,0.2
		s0.1,0.3,0.1,0.6V80c0,0.2,0,0.3-0.1,0.4s-0.2,0.1-0.4,0.1c-0.1,0-0.2,0-0.3-0.1s-0.2-0.2-0.3-0.4c-0.2-0.3-0.4-0.6-0.7-0.8
		s-0.6-0.3-1-0.3c-0.7,0-1.2,0.2-1.6,0.6s-0.6,0.9-0.6,1.5c0,0.6,0.2,1.1,0.6,1.5s0.9,0.6,1.5,0.6c0.3,0,0.6,0,0.8-0.1
		s0.5-0.2,0.7-0.4c0.1-0.1,0.2-0.1,0.3-0.2c0.3-0.2,0.5-0.3,0.6-0.3c0.1,0,0.2,0,0.3,0.1s0.1,0.2,0.1,0.3c0,0.3-0.3,0.7-0.9,1
		s-1.3,0.5-2,0.5c-0.9,0-1.7-0.3-2.3-0.9s-0.9-1.3-0.9-2.2s0.3-1.6,0.9-2.2s1.4-0.9,2.3-0.9c0.3,0,0.6,0,1,0.1
		S196.3,78.3,196.6,78.5z"/>
	<path id="Path_32_" class="st4" d="M204.3,78.5c0.2,0,0.4,0,0.5,0.1s0.1,0.2,0.1,0.3c0,0.1,0,0.3-0.1,0.3s-0.2,0.1-0.4,0.1h-2.6
		v2.1c0,0.7,0.1,1.2,0.3,1.4s0.5,0.3,0.9,0.3c0.4,0,0.8-0.1,1.4-0.3c0.5-0.2,0.9-0.3,1-0.3c0.1,0,0.2,0,0.3,0.1s0.1,0.2,0.1,0.3
		c0,0.1-0.1,0.3-0.2,0.4s-0.3,0.2-0.5,0.3c-0.4,0.2-0.8,0.3-1.1,0.4s-0.6,0.1-0.9,0.1c-0.5,0-0.9-0.1-1.2-0.2s-0.6-0.4-0.8-0.7
		c-0.1-0.1-0.1-0.3-0.2-0.5s-0.1-0.5-0.1-0.9v-2.3h-1.1c-0.2,0-0.3,0-0.4-0.1s-0.1-0.2-0.1-0.3c0-0.2,0.1-0.3,0.2-0.4
		s0.3-0.1,0.7-0.1h0.7v-1.6c0-0.2,0-0.3,0.1-0.4s0.2-0.1,0.4-0.1c0.2,0,0.3,0.1,0.4,0.2s0.1,0.3,0.1,0.7v1.3H204.3z"/>
	<path id="Path_33_" class="st4" d="M208.7,82.4l1.1-3.8c0-0.1,0.1-0.2,0.1-0.3s0.1-0.1,0.3-0.1h0.3c0.1,0,0.2,0,0.3,0.1
		s0.1,0.1,0.1,0.2l1.2,3.8l0.6-5h-1c-0.2,0-0.3,0-0.4-0.1s-0.1-0.2-0.1-0.3c0-0.2,0-0.3,0.1-0.3s0.2-0.1,0.5-0.1h2.1
		c0.1,0,0.2,0,0.2,0.1s0.1,0.2,0.1,0.3c0,0.1,0,0.3-0.1,0.3s-0.2,0.1-0.4,0.1h-0.1l-0.9,6.3c0,0.1,0,0.2-0.1,0.3s-0.1,0.1-0.2,0.1
		H212c-0.1,0-0.2,0-0.2-0.1s-0.1-0.1-0.1-0.2l-1.4-4.4l-1.2,4.4c0,0.1-0.1,0.2-0.1,0.2s-0.1,0.1-0.2,0.1h-0.5c-0.1,0-0.1,0-0.2-0.1
		s-0.1-0.1-0.1-0.3l-1-6.3h-0.1c-0.2,0-0.3,0-0.4-0.1s-0.1-0.2-0.1-0.3c0-0.1,0-0.2,0.1-0.3s0.2-0.1,0.2-0.1h2.1
		c0.2,0,0.4,0,0.5,0.1s0.1,0.2,0.1,0.3c0,0.1,0,0.3-0.1,0.3s-0.2,0.1-0.4,0.1H208L208.7,82.4z"/>
	<path id="Path_34_" class="st4" d="M217.5,76.3c0-0.5,0-0.7,0.1-0.9s0.3-0.2,0.5-0.2c0.3,0,0.4,0,0.5,0.1s0.1,0.3,0.1,0.7
		c0,0.4,0,0.6-0.1,0.7s-0.3,0.1-0.5,0.1c-0.3,0-0.4,0-0.5-0.1S217.5,76.6,217.5,76.3z"/>
	<path id="Path_35_" class="st4" d="M218.7,83.1h2c0.2,0,0.3,0,0.4,0.1s0.1,0.2,0.1,0.3c0,0.2,0,0.3-0.1,0.4s-0.2,0.1-0.4,0.1h-4.9
		c-0.2,0-0.3,0-0.4-0.1s-0.1-0.2-0.1-0.3c0-0.1,0-0.3,0.1-0.3s0.2-0.1,0.4-0.1h1.9V79h-1.2c-0.2,0-0.3,0-0.4-0.1s-0.1-0.2-0.1-0.3
		s0-0.3,0.1-0.3s0.2-0.1,0.4-0.1h1.9c0.1,0,0.2,0,0.3,0.1s0.1,0.1,0.1,0.2V83.1z"/>
	<path id="Combined-Shape_8_" class="st4" d="M227.8,84c-0.1,0-0.2,0-0.2-0.1s-0.1-0.1-0.1-0.3v-0.5c-0.3,0.3-0.6,0.6-1,0.7
		s-0.8,0.3-1.2,0.3c-0.8,0-1.5-0.3-2-0.9s-0.8-1.3-0.8-2.1c0-0.9,0.3-1.6,0.9-2.2c0.6-0.6,1.3-0.9,2.2-0.9c0.4,0,0.8,0.1,1.2,0.2
		s0.6,0.4,0.9,0.7v-2.4h-0.3c-0.4,0-0.6,0-0.7-0.1s-0.2-0.2-0.2-0.4c0-0.2,0-0.3,0.1-0.3s0.2-0.1,0.4-0.1h1.3c0.1,0,0.2,0,0.3,0.1
		s0.1,0.1,0.1,0.2v7.2h0.3c0.2,0,0.4,0,0.5,0.1s0.1,0.2,0.1,0.3c0,0.1,0,0.3-0.1,0.3s-0.2,0.1-0.3,0.1H227.8z M223.7,81.1
		c0,0.6,0.2,1.1,0.6,1.4s0.9,0.6,1.4,0.6c0.6,0,1.1-0.2,1.4-0.6s0.6-0.9,0.6-1.5c0-0.6-0.2-1.1-0.6-1.5s-0.9-0.6-1.4-0.6
		c-0.6,0-1.1,0.2-1.4,0.6S223.7,80.5,223.7,81.1z"/>
	<path id="Path_36_" class="st4" d="M235.5,78.5c0.2,0,0.4,0,0.5,0.1s0.1,0.2,0.1,0.3c0,0.1,0,0.3-0.1,0.3s-0.2,0.1-0.4,0.1h-2.6
		v2.1c0,0.7,0.1,1.2,0.3,1.4s0.5,0.3,0.9,0.3c0.4,0,0.8-0.1,1.4-0.3s0.9-0.3,1-0.3c0.1,0,0.2,0,0.3,0.1s0.1,0.2,0.1,0.3
		c0,0.1-0.1,0.3-0.2,0.4s-0.3,0.2-0.5,0.3c-0.4,0.2-0.8,0.3-1.1,0.4s-0.6,0.1-0.9,0.1c-0.5,0-0.9-0.1-1.2-0.2s-0.6-0.4-0.8-0.7
		c-0.1-0.1-0.1-0.3-0.2-0.5s-0.1-0.5-0.1-0.9v-2.3h-1.1c-0.2,0-0.3,0-0.4-0.1s-0.1-0.2-0.1-0.3c0-0.2,0.1-0.3,0.2-0.4
		s0.3-0.1,0.7-0.1h0.7v-1.6c0-0.2,0-0.3,0.1-0.4s0.2-0.1,0.4-0.1c0.2,0,0.3,0.1,0.4,0.2s0.1,0.3,0.1,0.7v1.3H235.5z"/>
	<path id="Path_37_" class="st4" d="M239.1,83.1v-6.5H239c-0.3,0-0.5,0-0.6-0.1s-0.2-0.2-0.2-0.4c0-0.2,0-0.3,0.1-0.3
		s0.2-0.1,0.4-0.1h1c0.1,0,0.2,0,0.3,0.1s0.1,0.1,0.1,0.2v2.9c0.3-0.3,0.6-0.5,0.9-0.6s0.6-0.2,0.9-0.2c0.6,0,1.1,0.2,1.5,0.6
		s0.5,0.9,0.5,1.7v2.9h0.3c0.2,0,0.4,0,0.5,0.1s0.1,0.2,0.1,0.3s0,0.3-0.1,0.3s-0.2,0.1-0.4,0.1h-1.7c-0.2,0-0.3,0-0.4-0.1
		s-0.1-0.2-0.1-0.4c0-0.2,0-0.3,0.1-0.3s0.3-0.1,0.5-0.1h0.2v-2.6c0-0.5-0.1-0.9-0.3-1.1s-0.6-0.4-1-0.4c-0.4,0-0.8,0.1-1.1,0.4
		s-0.5,0.7-0.5,1.1v2.6h0.2c0.3,0,0.4,0,0.5,0.1s0.1,0.2,0.1,0.3c0,0.2,0,0.3-0.1,0.4s-0.2,0.1-0.4,0.1h-1.7c-0.2,0-0.3,0-0.4-0.1
		s-0.1-0.2-0.1-0.3c0-0.2,0-0.3,0.1-0.3s0.3-0.1,0.6-0.1H239.1z"/>
	<path id="Path_38_" class="st4" d="M264.3,83.1h2.1c0.2,0,0.3,0,0.4,0.1s0.1,0.2,0.1,0.3c0,0.2,0,0.3-0.1,0.4s-0.2,0.1-0.4,0.1
		h-4.2c-0.2,0-0.3,0-0.4-0.1s-0.1-0.2-0.1-0.3c0-0.1,0-0.3,0.1-0.3s0.2-0.1,0.4-0.1h1.1V79h-0.4c-0.4,0-0.7,0-0.8-0.1
		s-0.2-0.2-0.2-0.4c0-0.1,0-0.3,0.1-0.3s0.2-0.1,0.4-0.1h1.4c0.1,0,0.2,0,0.3,0.1s0.1,0.1,0.1,0.2v1.1c0.4-0.5,0.8-0.9,1.3-1.1
		s0.9-0.4,1.4-0.4c0.4,0,0.7,0.1,0.9,0.2s0.3,0.3,0.3,0.6c0,0.2-0.1,0.3-0.2,0.4s-0.2,0.2-0.4,0.2c-0.1,0-0.3-0.1-0.5-0.2
		s-0.4-0.2-0.6-0.2c-0.3,0-0.7,0.1-1,0.4s-0.8,0.6-1.2,1.1V83.1z"/>
	<path id="Combined-Shape_9_" class="st4" d="M270.6,81.3c0,0.6,0.2,1.1,0.6,1.4s0.9,0.5,1.6,0.5c0.5,0,1-0.1,1.6-0.4
		s0.9-0.4,1.1-0.4c0.1,0,0.2,0,0.3,0.1s0.1,0.2,0.1,0.3c0,0.1,0,0.2-0.1,0.3s-0.2,0.2-0.4,0.3c-0.4,0.2-0.9,0.4-1.3,0.5
		s-0.9,0.2-1.3,0.2c-1,0-1.7-0.3-2.3-0.8s-0.9-1.3-0.9-2.2c0-0.9,0.3-1.7,0.9-2.3s1.4-0.9,2.4-0.9c0.9,0,1.6,0.3,2.2,0.8
		s0.9,1.2,0.9,2c0,0.2,0,0.4-0.1,0.5s-0.4,0.1-0.8,0.1H270.6z M270.6,80.5h4.1c-0.1-0.5-0.3-0.9-0.6-1.2s-0.8-0.5-1.3-0.5
		c-0.6,0-1,0.1-1.4,0.4S270.7,80,270.6,80.5z"/>
	<path id="Path_39_" class="st4" d="M282.4,78.5L282.4,78.5c0-0.2,0-0.3,0.1-0.3s0.2-0.1,0.4-0.1c0.2,0,0.3,0.1,0.4,0.2
		s0.1,0.3,0.1,0.6V80c0,0.2,0,0.3-0.1,0.4s-0.2,0.1-0.4,0.1c-0.1,0-0.2,0-0.3-0.1s-0.2-0.2-0.3-0.4c-0.2-0.3-0.4-0.6-0.7-0.8
		s-0.6-0.3-1-0.3c-0.7,0-1.2,0.2-1.6,0.6s-0.6,0.9-0.6,1.5c0,0.6,0.2,1.1,0.6,1.5s0.9,0.6,1.5,0.6c0.3,0,0.6,0,0.8-0.1
		s0.5-0.2,0.7-0.4c0.1-0.1,0.2-0.1,0.3-0.2c0.3-0.2,0.5-0.3,0.6-0.3c0.1,0,0.2,0,0.3,0.1s0.1,0.2,0.1,0.3c0,0.3-0.3,0.7-0.9,1
		s-1.3,0.5-2,0.5c-0.9,0-1.7-0.3-2.3-0.9s-0.9-1.3-0.9-2.2s0.3-1.6,0.9-2.2s1.4-0.9,2.3-0.9c0.3,0,0.6,0,1,0.1
		S282.1,78.3,282.4,78.5z"/>
	<path id="Path_40_" class="st4" d="M290.1,78.5c0.2,0,0.4,0,0.5,0.1s0.1,0.2,0.1,0.3c0,0.1,0,0.3-0.1,0.3s-0.2,0.1-0.4,0.1h-2.6
		v2.1c0,0.7,0.1,1.2,0.3,1.4s0.5,0.3,0.9,0.3c0.4,0,0.8-0.1,1.4-0.3s0.9-0.3,1-0.3c0.1,0,0.2,0,0.3,0.1s0.1,0.2,0.1,0.3
		c0,0.1-0.1,0.3-0.2,0.4s-0.3,0.2-0.5,0.3c-0.4,0.2-0.8,0.3-1.1,0.4s-0.6,0.1-0.9,0.1c-0.5,0-0.9-0.1-1.2-0.2s-0.6-0.4-0.8-0.7
		c-0.1-0.1-0.1-0.3-0.2-0.5s-0.1-0.5-0.1-0.9v-2.3h-1.1c-0.2,0-0.3,0-0.4-0.1s-0.1-0.2-0.1-0.3c0-0.2,0.1-0.3,0.2-0.4
		s0.3-0.1,0.7-0.1h0.7v-1.6c0-0.2,0-0.3,0.1-0.4s0.2-0.1,0.4-0.1c0.2,0,0.3,0.1,0.4,0.2s0.1,0.3,0.1,0.7v1.3H290.1z"/>
	<path id="Path_41_" class="st4" d="M294.6,83.1h0.4c0.2,0,0.4,0,0.5,0.1s0.2,0.2,0.2,0.3c0,0.2,0,0.3-0.1,0.4S295.3,84,295,84h-1.7
		c-0.2,0-0.3,0-0.4-0.1s-0.1-0.2-0.1-0.3c0-0.2,0-0.3,0.1-0.3s0.3-0.1,0.5-0.1h0.1v-5.7h-0.1c-0.3,0-0.4,0-0.5-0.1s-0.1-0.2-0.1-0.4
		c0-0.2,0-0.3,0.1-0.3s0.2-0.1,0.4-0.1h1.6c0.3,0,0.6,0,0.6,0.1s0.1,0.2,0.1,0.4c0,0.2-0.1,0.3-0.2,0.4s-0.3,0.1-0.6,0.1h-0.3v2.2h3
		v-2.2h-0.4c-0.2,0-0.4,0-0.5-0.1s-0.2-0.2-0.2-0.3c0-0.2,0-0.3,0.1-0.4s0.3-0.1,0.7-0.1h1.5c0.2,0,0.3,0,0.3,0.1s0.1,0.2,0.1,0.3
		c0,0.2,0,0.3-0.1,0.4s-0.2,0.1-0.5,0.1h-0.2v5.7h0.1c0.3,0,0.4,0,0.5,0.1s0.1,0.2,0.1,0.3c0,0.2,0,0.3-0.1,0.4S299,84,298.7,84
		h-1.3c-0.3,0-0.6,0-0.7-0.1s-0.1-0.2-0.1-0.4c0-0.2,0.1-0.3,0.2-0.3s0.3-0.1,0.6-0.1h0.3v-2.6h-3V83.1z"/>
	<path id="Combined-Shape_10_" class="st4" d="M301.8,81.3c0,0.6,0.2,1.1,0.6,1.4s0.9,0.5,1.6,0.5c0.5,0,1-0.1,1.6-0.4
		s0.9-0.4,1.1-0.4c0.1,0,0.2,0,0.3,0.1s0.1,0.2,0.1,0.3c0,0.1,0,0.2-0.1,0.3s-0.2,0.2-0.4,0.3c-0.4,0.2-0.9,0.4-1.3,0.5
		s-0.9,0.2-1.3,0.2c-1,0-1.7-0.3-2.3-0.8s-0.9-1.3-0.9-2.2c0-0.9,0.3-1.7,0.9-2.3S303,78,304,78c0.9,0,1.6,0.3,2.2,0.8
		s0.9,1.2,0.9,2c0,0.2,0,0.4-0.1,0.5s-0.4,0.1-0.8,0.1H301.8z M301.8,80.5h4.1c-0.1-0.5-0.3-0.9-0.6-1.2s-0.8-0.5-1.3-0.5
		c-0.6,0-1,0.1-1.4,0.4S301.9,80,301.8,80.5z"/>
	<path id="Path_42_" class="st4" d="M311.2,76.3c0-0.5,0-0.7,0.1-0.9s0.3-0.2,0.5-0.2c0.3,0,0.4,0,0.5,0.1s0.1,0.3,0.1,0.7
		c0,0.4,0,0.6-0.1,0.7s-0.3,0.1-0.5,0.1c-0.3,0-0.4,0-0.5-0.1S311.2,76.6,311.2,76.3z"/>
	<path id="Path_43_" class="st4" d="M312.3,83.1h2c0.2,0,0.3,0,0.4,0.1s0.1,0.2,0.1,0.3c0,0.2,0,0.3-0.1,0.4s-0.2,0.1-0.4,0.1h-4.9
		c-0.2,0-0.3,0-0.4-0.1s-0.1-0.2-0.1-0.3c0-0.1,0-0.3,0.1-0.3s0.2-0.1,0.4-0.1h1.9V79h-1.2c-0.2,0-0.3,0-0.4-0.1s-0.1-0.2-0.1-0.3
		s0-0.3,0.1-0.3s0.2-0.1,0.4-0.1h1.9c0.1,0,0.2,0,0.3,0.1s0.1,0.1,0.1,0.2V83.1z"/>
	<path id="Combined-Shape_11_" class="st4" d="M322.1,83.7c0,0.6,0,1-0.1,1.3s-0.2,0.5-0.3,0.7c-0.2,0.3-0.6,0.6-1,0.7
		s-0.9,0.2-1.5,0.2c-0.5,0-0.8,0-1.1-0.1s-0.3-0.2-0.3-0.4c0-0.1,0.1-0.2,0.2-0.3s0.2-0.1,0.4-0.1c0.1,0,0.3,0,0.5,0s0.4,0,0.5,0
		c0.6,0,1.1-0.1,1.3-0.4s0.4-0.8,0.4-1.5v-0.8c-0.3,0.3-0.5,0.5-0.9,0.7s-0.7,0.2-1.1,0.2c-0.8,0-1.4-0.3-2-0.8s-0.8-1.2-0.8-2
		c0-0.8,0.3-1.5,0.8-2s1.2-0.8,2-0.8c0.3,0,0.6,0.1,1,0.2s0.6,0.3,0.9,0.5v-0.5c0-0.1,0-0.2,0.1-0.2s0.1-0.1,0.3-0.1h1
		c0.2,0,0.3,0,0.4,0.1s0.1,0.2,0.1,0.3c0,0.2-0.1,0.3-0.2,0.4s-0.3,0.1-0.6,0.1h-0.1V83.7z M319.4,79.1c-0.6,0-1,0.2-1.4,0.5
		s-0.5,0.8-0.5,1.3c0,0.5,0.2,1,0.5,1.3s0.8,0.5,1.4,0.5c0.6,0,1-0.2,1.4-0.5s0.5-0.8,0.5-1.3s-0.2-1-0.5-1.3S319.9,79.1,319.4,79.1
		z"/>
	<path id="Path_44_" class="st4" d="M325,83.1v-6.5h-0.1c-0.3,0-0.5,0-0.6-0.1s-0.2-0.2-0.2-0.4c0-0.2,0-0.3,0.1-0.3
		s0.2-0.1,0.4-0.1h1c0.1,0,0.2,0,0.3,0.1s0.1,0.1,0.1,0.2v2.9c0.3-0.3,0.6-0.5,0.9-0.6s0.6-0.2,0.9-0.2c0.6,0,1.1,0.2,1.5,0.6
		s0.5,0.9,0.5,1.7v2.9h0.3c0.2,0,0.4,0,0.5,0.1s0.1,0.2,0.1,0.3s0,0.3-0.1,0.3s-0.2,0.1-0.4,0.1h-1.7c-0.2,0-0.3,0-0.4-0.1
		s-0.1-0.2-0.1-0.4c0-0.2,0-0.3,0.1-0.3s0.3-0.1,0.5-0.1h0.2v-2.6c0-0.5-0.1-0.9-0.3-1.1s-0.6-0.4-1-0.4c-0.4,0-0.8,0.1-1.1,0.4
		s-0.5,0.7-0.5,1.1v2.6h0.2c0.3,0,0.4,0,0.5,0.1s0.1,0.2,0.1,0.3c0,0.2,0,0.3-0.1,0.4s-0.2,0.1-0.4,0.1h-1.7c-0.2,0-0.3,0-0.4-0.1
		s-0.1-0.2-0.1-0.3c0-0.2,0-0.3,0.1-0.3s0.3-0.1,0.6-0.1H325z"/>
	<path id="Path_45_" class="st4" d="M336.9,78.5c0.2,0,0.4,0,0.5,0.1s0.1,0.2,0.1,0.3c0,0.1,0,0.3-0.1,0.3s-0.2,0.1-0.4,0.1h-2.6
		v2.1c0,0.7,0.1,1.2,0.3,1.4s0.5,0.3,0.9,0.3c0.4,0,0.8-0.1,1.4-0.3s0.9-0.3,1-0.3c0.1,0,0.2,0,0.3,0.1s0.1,0.2,0.1,0.3
		c0,0.1-0.1,0.3-0.2,0.4s-0.3,0.2-0.5,0.3c-0.4,0.2-0.8,0.3-1.1,0.4s-0.6,0.1-0.9,0.1c-0.5,0-0.9-0.1-1.2-0.2s-0.6-0.4-0.8-0.7
		c-0.1-0.1-0.1-0.3-0.2-0.5s-0.1-0.5-0.1-0.9v-2.3h-1.1c-0.2,0-0.3,0-0.4-0.1s-0.1-0.2-0.1-0.3c0-0.2,0.1-0.3,0.2-0.4
		s0.3-0.1,0.7-0.1h0.7v-1.6c0-0.2,0-0.3,0.1-0.4s0.2-0.1,0.4-0.1c0.2,0,0.3,0.1,0.4,0.2s0.1,0.3,0.1,0.7v1.3H336.9z"/>
</g>
<path class="st3" d="M283.3,138.1l-2.9-7.9h1.5l1.7,4.9c0.1,0.2,0.2,0.7,0.4,1.5c0-0.1,0.1-0.3,0.2-0.7s0.2-0.7,0.2-0.8
	c0-0.1,0.3-0.9,0.8-2.4s0.8-2.3,0.8-2.4h1.5l-2.8,7.9H283.3z"/>
<polygon class="st3" points="287,138.1 289.9,130.2 291.5,130.2 294.3,138.1 292.8,138.1 292,135.8 289.3,135.8 288.5,138.1 "/>
<path class="st7" d="M289.6,134.8h2c-0.6-2.1-1-3.1-1-3.2L289.6,134.8z"/>
<path class="st3" d="M295,138.1v-7.9h2.9c0.4,0,0.7,0,1,0.1s0.6,0.1,0.8,0.2s0.5,0.2,0.6,0.4s0.3,0.4,0.4,0.6s0.1,0.6,0.1,0.9
	c0,1-0.5,1.7-1.4,2.1c0.2,0.2,0.4,0.6,0.7,1.2l1.2,2.4h-1.6L299,136c-0.3-0.7-0.6-1.2-0.6-1.3c-0.1,0-0.3,0-0.6,0l-1.2,0v3.4H295z"
	/>
<path class="st7" d="M298.1,133.6c0.6,0,1-0.1,1.2-0.3s0.4-0.5,0.4-1c0-0.4-0.1-0.7-0.4-0.9s-0.6-0.3-1.1-0.3h-1.7v2.4
	c0.1,0,0.3,0,0.8,0S298,133.6,298.1,133.6z"/>
<rect x="302.6" y="130.2" class="st3" width="1.5" height="7.9"/>
<polygon class="st3" points="304.9,138.1 307.8,130.2 309.4,130.2 312.3,138.1 310.8,138.1 310,135.8 307.2,135.8 306.5,138.1 "/>
<path class="st7" d="M307.6,134.8h2c-0.6-2.1-1-3.1-1-3.2L307.6,134.8z"/>
<path class="st3" d="M313.1,138.1v-7.9h2.5c1,0,1.8,0.2,2.3,0.5s0.8,0.8,0.8,1.5c0,0.1,0,0.2,0,0.3s0,0.2-0.1,0.4s-0.1,0.3-0.2,0.4
	s-0.2,0.2-0.3,0.3s-0.3,0.2-0.5,0.3c0.5,0.1,0.9,0.3,1.1,0.7s0.4,0.7,0.4,1.2c0,0.7-0.3,1.3-0.8,1.7s-1.3,0.6-2.2,0.6H313.1z"/>
<path class="st7" d="M314.6,137h1.3c1.1,0,1.7-0.4,1.7-1.3c0-0.4-0.1-0.8-0.4-1s-0.7-0.3-1.3-0.3h-1.2V137z"/>
<path class="st7" d="M314.6,133.5h1.2c1,0,1.4-0.4,1.4-1.1c0-0.4-0.1-0.7-0.4-0.8s-0.7-0.2-1.3-0.2h-1V133.5z"/>
<polygon class="st3" points="320.3,138.1 320.3,130.2 321.7,130.2 321.7,136.9 325,136.9 325,138.1 "/>
<polygon class="st3" points="326,138.1 326,130.2 330.8,130.2 330.7,131.4 327.5,131.4 327.5,133.4 330.6,133.4 330.6,134.5 
	327.5,134.5 327.5,136.9 330.8,136.9 330.8,138.1 "/>
<path class="st3" d="M334.4,138.2c-0.9,0-1.8-0.2-2.6-0.7l0.4-1.2c0.3,0.2,0.7,0.3,1.1,0.5s0.8,0.2,1.2,0.2c0.5,0,0.8-0.1,1-0.3
	s0.4-0.5,0.4-0.9c0-0.5-0.3-0.8-1-1c0,0-0.2-0.1-0.4-0.1s-0.4-0.1-0.6-0.2s-0.3-0.1-0.4-0.1c-1.1-0.4-1.6-1.1-1.6-2.1
	c0-0.7,0.3-1.3,0.8-1.6s1.2-0.6,2-0.6c0.9,0,1.8,0.2,2.5,0.6l-0.4,1.1c-0.7-0.3-1.4-0.5-2-0.5c-0.4,0-0.8,0.1-1,0.2
	s-0.3,0.4-0.4,0.8c0,0.4,0.2,0.7,0.6,0.9c0.1,0,0.3,0.1,0.6,0.2s0.6,0.2,0.7,0.2c0.7,0.2,1.2,0.5,1.5,0.9s0.5,0.8,0.5,1.5
	c0,0.7-0.3,1.3-0.8,1.7S335.3,138.2,334.4,138.2z"/>
</svg>
